<svg width="43" height="8" viewBox="0 0 43 8" fill="none" xmlns="http://www.w3.org/2000/svg">
<path d="M6.77471 7H5.62774L5.06084 5.396H2.58232L2.0374 7H0.894825L3.25469 0.698242H4.43242L6.77471 7ZM4.78399 4.54346L3.90947 2.02979C3.88311 1.94775 3.85527 1.81592 3.82598 1.63428H3.8084C3.78203 1.80127 3.75274 1.93311 3.72051 2.02979L2.85479 4.54346H4.78399ZM13.0714 4.45117C13.0714 6.2207 12.2335 7.10547 10.5577 7.10547C8.95223 7.10547 8.14949 6.25439 8.14949 4.55225V0.698242H9.19539V4.33691C9.19539 5.57324 9.67586 6.19141 10.6368 6.19141C11.5626 6.19141 12.0255 5.59521 12.0255 4.40283V0.698242H13.0714V4.45117ZM19.3153 1.58594H17.5047V7H16.4588V1.58594H14.6527V0.698242H19.3153V1.58594ZM25.8053 4.45117C25.8053 6.2207 24.9674 7.10547 23.2916 7.10547C21.6862 7.10547 20.8834 6.25439 20.8834 4.55225V0.698242H21.9293V4.33691C21.9293 5.57324 22.4098 6.19141 23.3707 6.19141C24.2965 6.19141 24.7594 5.59521 24.7594 4.40283V0.698242H25.8053V4.45117ZM34.7738 7H33.7367V2.92188C33.7367 2.58789 33.7572 2.1792 33.7983 1.6958H33.7807C33.7162 1.97119 33.6591 2.16895 33.6093 2.28906L31.7284 7H31.0077L29.1225 2.32422C29.0697 2.18652 29.0141 1.97705 28.9555 1.6958H28.9379C28.9613 1.94775 28.9731 2.35938 28.9731 2.93066V7H28.0063V0.698242H29.4784L31.1352 4.89502C31.2612 5.21729 31.3432 5.45752 31.3813 5.61572H31.4032C31.5116 5.28467 31.5995 5.03857 31.6669 4.87744L33.3544 0.698242H34.7738V7ZM42.3933 7H41.2507L38.2404 2.36816C38.1643 2.25098 38.1013 2.12939 38.0515 2.00342H38.0251C38.0485 2.13818 38.0603 2.42676 38.0603 2.86914V7H37.0495V0.698242H38.2668L41.176 5.22021C41.299 5.40771 41.3781 5.53662 41.4133 5.60693H41.4309C41.4016 5.43994 41.3869 5.15723 41.3869 4.75879V0.698242H42.3933V7Z" fill="black"/>
</svg>
