<svg width="54" height="59" viewBox="0 0 54 59" fill="none" xmlns="http://www.w3.org/2000/svg">
<path d="M16.1069 47.4102V56H14.7475V49.0742C14.5014 49.25 14.2358 49.4004 13.9506 49.5254C13.6694 49.6465 13.3471 49.7539 12.9838 49.8477V48.6875C13.2104 48.6133 13.4291 48.5352 13.6401 48.4531C13.851 48.3711 14.058 48.2793 14.2612 48.1777C14.4682 48.0762 14.6752 47.9629 14.8823 47.8379C15.0932 47.7129 15.31 47.5703 15.5327 47.4102H16.1069ZM24.4263 51.3418C24.4263 52.1816 24.3345 52.9043 24.1509 53.5098C23.9712 54.1152 23.7212 54.6133 23.4009 55.0039C23.0845 55.3945 22.7114 55.6836 22.2817 55.8711C21.8559 56.0547 21.397 56.1465 20.9048 56.1465C20.7446 56.1465 20.5825 56.1367 20.4184 56.1172C20.2583 56.0977 20.104 56.0723 19.9555 56.041C19.811 56.0098 19.6782 55.9766 19.5571 55.9414C19.4399 55.9023 19.3423 55.8652 19.2641 55.8301V54.6055C19.3462 54.6562 19.4477 54.709 19.5688 54.7637C19.6899 54.8145 19.8208 54.8613 19.9614 54.9043C20.1059 54.9434 20.2544 54.9766 20.4067 55.0039C20.563 55.0273 20.7134 55.0391 20.8579 55.0391C21.1899 55.0391 21.4907 54.9746 21.7602 54.8457C22.0337 54.7168 22.2661 54.5254 22.4575 54.2715C22.6489 54.0176 22.7954 53.7031 22.897 53.3281C23.0024 52.9492 23.0552 52.5117 23.0552 52.0156H23.0317C22.9614 52.1406 22.8677 52.2598 22.7505 52.373C22.6372 52.4824 22.5063 52.5801 22.3579 52.666C22.2095 52.748 22.0434 52.8145 21.8598 52.8652C21.6802 52.916 21.4868 52.9414 21.2798 52.9414C20.9282 52.9414 20.6001 52.8809 20.2954 52.7598C19.9946 52.6348 19.7329 52.459 19.5102 52.2324C19.2876 52.0059 19.1118 51.7305 18.9829 51.4062C18.8579 51.082 18.7954 50.7207 18.7954 50.3223C18.7954 49.8848 18.8677 49.4902 19.0122 49.1387C19.1567 48.7832 19.3559 48.4824 19.6098 48.2363C19.8638 47.9863 20.1626 47.7949 20.5063 47.6621C20.8501 47.5254 21.2231 47.457 21.6255 47.457C22.0044 47.457 22.3618 47.5293 22.6977 47.6738C23.0376 47.8145 23.3345 48.041 23.5884 48.3535C23.8462 48.6621 24.0493 49.0625 24.1977 49.5547C24.3501 50.0469 24.4263 50.6426 24.4263 51.3418ZM23.0083 50.4453C23.0083 50.1641 22.9712 49.9082 22.897 49.6777C22.8266 49.4473 22.727 49.25 22.5981 49.0859C22.4692 48.9219 22.3149 48.7949 22.1352 48.7051C21.9595 48.6152 21.7661 48.5703 21.5552 48.5703C21.3677 48.5703 21.188 48.6094 21.0161 48.6875C20.8481 48.7617 20.6997 48.8691 20.5708 49.0098C20.4458 49.1504 20.3462 49.3203 20.272 49.5195C20.1977 49.7188 20.1606 49.9395 20.1606 50.1816C20.1606 50.4473 20.1958 50.6816 20.2661 50.8848C20.3403 51.0879 20.4419 51.2598 20.5708 51.4004C20.6997 51.5371 20.854 51.6426 21.0337 51.7168C21.2173 51.7871 21.4184 51.8223 21.6372 51.8223C21.8325 51.8223 22.0122 51.7871 22.1763 51.7168C22.3442 51.6426 22.4888 51.5449 22.6098 51.4238C22.7348 51.2988 22.8325 51.1523 22.9028 50.9844C22.9731 50.8164 23.0083 50.6367 23.0083 50.4453ZM29.1948 56.1406C28.3198 56.1406 27.6362 55.7832 27.1441 55.0684C26.6558 54.3535 26.4116 53.3203 26.4116 51.9688C26.4116 50.4844 26.6675 49.3613 27.1792 48.5996C27.6909 47.8379 28.4292 47.457 29.3941 47.457C31.2417 47.457 32.1655 48.8926 32.1655 51.7637C32.1655 53.1855 31.9038 54.2715 31.3804 55.0215C30.8609 55.7676 30.1323 56.1406 29.1948 56.1406ZM29.3296 48.541C28.3101 48.541 27.8003 49.6641 27.8003 51.9102C27.8003 54.0117 28.3003 55.0625 29.3003 55.0625C30.2847 55.0625 30.7769 53.9941 30.7769 51.8574C30.7769 49.6465 30.2945 48.541 29.3296 48.541ZM39.0084 47.5977V53.0234H40.2564V54.1543H39.0084V56H37.69V54.1543H33.8873V53.0117C34.231 52.625 34.5826 52.207 34.942 51.7578C35.3052 51.3047 35.6529 50.8438 35.9849 50.375C36.3209 49.9023 36.6314 49.4297 36.9166 48.957C37.2017 48.4844 37.442 48.0312 37.6373 47.5977H39.0084ZM37.69 53.0234V49.4961C37.2642 50.2617 36.8423 50.9297 36.4244 51.5C36.0103 52.0703 35.6216 52.5781 35.2584 53.0234H37.69Z" fill="black"/>
<g filter="url(#filter0_d)">
<circle cx="27" cy="22" r="17" fill="black"/>
<path d="M27 11L25.1034 14.531C25.0159 14.6963 24.8701 14.8215 24.6955 14.8813C24.521 14.9412 24.3307 14.9312 24.1631 14.8535L22.5826 14.1602L23.4677 19.9807C23.481 20.0509 23.4716 20.1236 23.441 20.1879C23.4103 20.2523 23.3601 20.3047 23.2977 20.3374C23.2354 20.3701 23.1644 20.3813 23.0953 20.3693C23.0262 20.3573 22.9627 20.3228 22.9145 20.2709L20.3621 17.7718L19.9827 18.9246C19.9138 19.1307 19.7717 19.3029 19.5845 19.4074C19.3973 19.5118 19.1785 19.5409 18.9712 19.489L16.4504 18.844L17.1695 22.4073C17.2118 22.6046 17.1843 22.8109 17.0917 22.9895C16.9991 23.168 16.8475 23.3074 16.6638 23.3828L16 23.6649L20.9231 28.1069C21.098 28.2631 21.228 28.4649 21.299 28.6908C21.37 28.9166 21.3794 29.1579 21.3261 29.3887L21.0416 30.7189L25.704 30.0901C25.8142 30.0788 25.9256 30.0912 26.0307 30.1267C26.1359 30.1621 26.2326 30.2197 26.3146 30.2957C26.3966 30.3717 26.462 30.4645 26.5065 30.5679C26.5511 30.6714 26.5738 30.7832 26.5733 30.8962L26.4547 34H27.5452L27.4267 30.8962C27.4262 30.7832 27.4489 30.6714 27.4935 30.5679C27.538 30.4645 27.6034 30.3717 27.6854 30.2957C27.7673 30.2197 27.8641 30.1621 27.9693 30.1267C28.0744 30.0912 28.1858 30.0788 28.296 30.0901L32.9583 30.7189L32.6659 29.3887C32.6197 29.1564 32.634 28.9157 32.7075 28.6907C32.781 28.4658 32.9111 28.2645 33.0848 28.1069L38 23.6649L36.6882 23.0925L37.5496 18.8198L34.278 19.626L33.6379 17.7718L31.1171 20.2709C31.0688 20.3228 31.0054 20.3573 30.9363 20.3693C30.8672 20.3813 30.7962 20.3701 30.7339 20.3374C30.6715 20.3047 30.6213 20.2523 30.5906 20.1879C30.56 20.1236 30.5506 20.0509 30.5639 19.9807L31.4253 14.1602L29.8448 14.8535C29.6767 14.9274 29.4877 14.9354 29.3141 14.8759C29.1406 14.8164 28.9947 14.6936 28.9044 14.531L27 11Z" fill="white"/>
</g>
<defs>
<filter id="filter0_d" x="0" y="0" width="54" height="54" filterUnits="userSpaceOnUse" color-interpolation-filters="sRGB">
<feFlood flood-opacity="0" result="BackgroundImageFix"/>
<feColorMatrix in="SourceAlpha" type="matrix" values="0 0 0 0 0 0 0 0 0 0 0 0 0 0 0 0 0 0 127 0"/>
<feOffset dy="5"/>
<feGaussianBlur stdDeviation="5"/>
<feColorMatrix type="matrix" values="0 0 0 0 0 0 0 0 0 0 0 0 0 0 0 0 0 0 0.4 0"/>
<feBlend mode="normal" in2="BackgroundImageFix" result="effect1_dropShadow"/>
<feBlend mode="normal" in="SourceGraphic" in2="effect1_dropShadow" result="shape"/>
</filter>
</defs>
</svg>
