<svg width="38" height="38" viewBox="0 0 38 38" fill="none" xmlns="http://www.w3.org/2000/svg">
<circle cx="19" cy="19" r="19" fill="black"/>
<path d="M12.4004 21.736C12.4004 22.144 12.4724 22.552 12.6164 22.936L22.1204 13.432C22.1444 13.432 20.3924 13.312 18.8804 13.312C17.3684 13.312 12.4004 13.672 12.4004 13.672V21.736Z" fill="white"/>
<path d="M18.8799 28.8161L23.8719 24.7121C24.8079 23.9441 25.3599 22.8641 25.3599 21.7361V17.1281L16.0239 26.4641L18.8799 28.8161Z" fill="white"/>
<path d="M22.6721 10.84C21.1121 10.624 19.7921 10.12 18.9521 9.49603C18.1121 10.12 16.7921 10.624 15.2321 10.84C13.6481 11.056 12.1841 10.936 11.2241 10.552V21.976C11.2241 23.296 11.8481 24.568 12.9761 25.48L18.8801 30.328L24.7841 25.48C25.9121 24.568 26.5361 23.296 26.5361 21.976V10.576C25.5761 10.936 24.1841 11.056 22.6721 10.84ZM25.9841 21.784C25.9841 23.008 25.4081 24.184 24.3521 25.048L18.8801 29.536L13.4081 25.048C12.3761 24.184 11.7761 23.032 11.7761 21.784V12.928C11.7761 12.928 15.6401 12.448 18.8801 12.448C22.1201 12.448 25.9841 12.928 25.9841 12.928V21.784Z" fill="white"/>
</svg>
