<svg width="84" height="34" viewBox="0 0 84 34" fill="none" xmlns="http://www.w3.org/2000/svg">
<path d="M54.9502 14.313V22.9028H53.5908V15.9771C53.3447 16.1528 53.0791 16.3032 52.7939 16.4282C52.5127 16.5493 52.1904 16.6567 51.8271 16.7505V15.5903C52.0537 15.5161 52.2725 15.438 52.4834 15.356C52.6943 15.2739 52.9014 15.1821 53.1045 15.0806C53.3115 14.979 53.5186 14.8657 53.7256 14.7407C53.9365 14.6157 54.1533 14.4731 54.376 14.313H54.9502ZM62.3096 18.2446C62.3096 19.0845 62.2178 19.8071 62.0342 20.4126C61.8545 21.0181 61.6045 21.5161 61.2842 21.9067C60.9678 22.2974 60.5947 22.5864 60.165 22.7739C59.7393 22.9575 59.2803 23.0493 58.7881 23.0493C58.6279 23.0493 58.4658 23.0396 58.3018 23.02C58.1416 23.0005 57.9873 22.9751 57.8389 22.9438C57.6943 22.9126 57.5615 22.8794 57.4404 22.8442C57.3232 22.8052 57.2256 22.7681 57.1475 22.7329V21.5083C57.2295 21.5591 57.3311 21.6118 57.4521 21.6665C57.5732 21.7173 57.7041 21.7642 57.8447 21.8071C57.9893 21.8462 58.1377 21.8794 58.29 21.9067C58.4463 21.9302 58.5967 21.9419 58.7412 21.9419C59.0732 21.9419 59.374 21.8774 59.6436 21.7485C59.917 21.6196 60.1494 21.4282 60.3408 21.1743C60.5322 20.9204 60.6787 20.606 60.7803 20.231C60.8857 19.8521 60.9385 19.4146 60.9385 18.9185H60.915C60.8447 19.0435 60.751 19.1626 60.6338 19.2759C60.5205 19.3853 60.3896 19.4829 60.2412 19.5688C60.0928 19.6509 59.9268 19.7173 59.7432 19.7681C59.5635 19.8188 59.3701 19.8442 59.1631 19.8442C58.8115 19.8442 58.4834 19.7837 58.1787 19.6626C57.8779 19.5376 57.6162 19.3618 57.3936 19.1353C57.1709 18.9087 56.9951 18.6333 56.8662 18.3091C56.7412 17.9849 56.6787 17.6235 56.6787 17.2251C56.6787 16.7876 56.751 16.3931 56.8955 16.0415C57.04 15.686 57.2393 15.3853 57.4932 15.1392C57.7471 14.8892 58.0459 14.6978 58.3896 14.5649C58.7334 14.4282 59.1064 14.3599 59.5088 14.3599C59.8877 14.3599 60.2451 14.4321 60.5811 14.5767C60.9209 14.7173 61.2178 14.9438 61.4717 15.2563C61.7295 15.5649 61.9326 15.9653 62.0811 16.4575C62.2334 16.9497 62.3096 17.5454 62.3096 18.2446ZM60.8916 17.3481C60.8916 17.0669 60.8545 16.811 60.7803 16.5806C60.71 16.3501 60.6104 16.1528 60.4814 15.9888C60.3525 15.8247 60.1982 15.6978 60.0186 15.6079C59.8428 15.5181 59.6494 15.4731 59.4385 15.4731C59.251 15.4731 59.0713 15.5122 58.8994 15.5903C58.7314 15.6646 58.583 15.772 58.4541 15.9126C58.3291 16.0532 58.2295 16.2231 58.1553 16.4224C58.0811 16.6216 58.0439 16.8423 58.0439 17.0845C58.0439 17.3501 58.0791 17.5845 58.1494 17.7876C58.2236 17.9907 58.3252 18.1626 58.4541 18.3032C58.583 18.4399 58.7373 18.5454 58.917 18.6196C59.1006 18.6899 59.3018 18.7251 59.5205 18.7251C59.7158 18.7251 59.8955 18.6899 60.0596 18.6196C60.2275 18.5454 60.3721 18.4478 60.4932 18.3267C60.6182 18.2017 60.7158 18.0552 60.7861 17.8872C60.8564 17.7192 60.8916 17.5396 60.8916 17.3481ZM66.1182 23.0435C65.2432 23.0435 64.5596 22.686 64.0674 21.9712C63.5791 21.2563 63.335 20.2231 63.335 18.8716C63.335 17.3872 63.5908 16.2642 64.1025 15.5024C64.6143 14.7407 65.3525 14.3599 66.3174 14.3599C68.165 14.3599 69.0889 15.7954 69.0889 18.6665C69.0889 20.0884 68.8271 21.1743 68.3037 21.9243C67.7842 22.6704 67.0557 23.0435 66.1182 23.0435ZM66.2529 15.4438C65.2334 15.4438 64.7236 16.5669 64.7236 18.813C64.7236 20.9146 65.2236 21.9653 66.2236 21.9653C67.208 21.9653 67.7002 20.897 67.7002 18.7603C67.7002 16.5493 67.2178 15.4438 66.2529 15.4438ZM74.9717 14.5005V19.9263H76.2197V21.0571H74.9717V22.9028H73.6533V21.0571H69.8506V19.9146C70.1943 19.5278 70.5459 19.1099 70.9053 18.6606C71.2686 18.2075 71.6162 17.7466 71.9482 17.2778C72.2842 16.8052 72.5947 16.3325 72.8799 15.8599C73.165 15.3872 73.4053 14.9341 73.6006 14.5005H74.9717ZM73.6533 19.9263V16.3989C73.2275 17.1646 72.8057 17.8325 72.3877 18.4028C71.9736 18.9731 71.585 19.481 71.2217 19.9263H73.6533Z" fill="black"/>
<path d="M31.9529 14.4929C31.7129 14.4929 31.4729 14.4929 31.2429 14.4929C30.7231 12.802 29.6749 11.3223 28.2521 10.2711C26.8293 9.21995 25.1069 8.65271 23.3379 8.65271C21.5689 8.65271 19.8465 9.21995 18.4237 10.2711C17.0009 11.3223 15.9526 12.802 15.4329 14.4929H15.0729C13.6901 14.5526 12.3837 15.144 11.4264 16.1436C10.469 17.1432 9.93457 18.4738 9.93457 19.8579C9.93457 21.242 10.469 22.5727 11.4264 23.5723C12.3837 24.5719 13.6901 25.1632 15.0729 25.2229H31.9529C33.3797 25.2229 34.7482 24.6561 35.7571 23.6472C36.7661 22.6382 37.3329 21.2698 37.3329 19.8429C37.3329 18.4161 36.7661 17.0476 35.7571 16.0387C34.7482 15.0297 33.3797 14.4629 31.9529 14.4629V14.4929Z" fill="black"/>
<path d="M11.6831 4.60288C11.8336 4.6042 11.983 4.57569 12.1224 4.51899C12.2619 4.46229 12.3887 4.37853 12.4957 4.27254C12.6026 4.16655 12.6874 4.04043 12.7454 3.90146C12.8033 3.76249 12.8331 3.61343 12.8331 3.46288V1.04288C12.8064 0.757669 12.6742 0.492686 12.4625 0.299797C12.2507 0.106908 11.9745 0 11.6881 0C11.4016 0 11.1255 0.106908 10.9137 0.299797C10.7019 0.492686 10.5698 0.757669 10.5431 1.04288V3.41288C10.5363 3.56674 10.5608 3.72037 10.6151 3.86451C10.6693 4.00864 10.7522 4.14029 10.8588 4.2515C10.9653 4.36271 11.0933 4.45119 11.235 4.51158C11.3766 4.57197 11.5291 4.60303 11.6831 4.60288Z" fill="black"/>
<path d="M5.02308 6.60292C5.1299 6.71592 5.25853 6.80609 5.40119 6.86797C5.54385 6.92985 5.69758 6.96215 5.85308 6.96292C6.16612 6.9558 6.46398 6.82661 6.68308 6.60292C6.88983 6.3839 7.00499 6.09411 7.00499 5.79292C7.00499 5.49173 6.88983 5.20194 6.68308 4.98292L4.94307 3.29292C4.8367 3.18721 4.71056 3.10348 4.57183 3.04652C4.4331 2.98956 4.28451 2.96048 4.13454 2.96094C3.98458 2.96141 3.83616 2.9914 3.69779 3.04922C3.55942 3.10704 3.43378 3.19155 3.32807 3.29792C3.22236 3.40429 3.13863 3.53044 3.08167 3.66917C3.02471 3.8079 2.99563 3.95649 2.9961 4.10646C2.99656 4.25642 3.02657 4.40483 3.08439 4.5432C3.14221 4.68158 3.2267 4.80721 3.33307 4.91292L5.02308 6.60292Z" fill="black"/>
<path d="M4.55287 11.7329C4.54767 11.4331 4.42558 11.1472 4.21263 10.9361C3.99968 10.725 3.7127 10.6055 3.41287 10.6029H1.04288C0.757668 10.6296 0.492679 10.7618 0.299789 10.9735C0.1069 11.1853 0 11.4615 0 11.7479C0 12.0344 0.1069 12.3105 0.299789 12.5223C0.492679 12.7341 0.757668 12.8662 1.04288 12.8929H3.41287C3.56428 12.8929 3.71417 12.8628 3.85381 12.8043C3.99344 12.7457 4.12001 12.66 4.22614 12.552C4.33226 12.444 4.41581 12.3159 4.47191 12.1753C4.52801 12.0347 4.55553 11.8843 4.55287 11.7329Z" fill="black"/>
<path d="M5.02362 16.7729L3.33362 18.4729C3.12291 18.6879 3.00488 18.9769 3.00488 19.2779C3.00488 19.579 3.12291 19.868 3.33362 20.0829C3.43893 20.1979 3.56728 20.2893 3.71028 20.3513C3.85329 20.4134 4.00775 20.4446 4.16362 20.4429C4.47364 20.4354 4.76822 20.306 4.98363 20.0829L6.68362 18.3929C6.89037 18.1739 7.00554 17.8841 7.00554 17.5829C7.00554 17.2817 6.89037 16.992 6.68362 16.7729C6.45691 16.5656 6.16082 16.4507 5.85362 16.4507C5.54642 16.4507 5.25034 16.5656 5.02362 16.7729Z" fill="black"/>
<path d="M17.6032 7.00291C17.9158 6.99372 18.2129 6.86485 18.4332 6.64291L20.1632 4.95291C20.2855 4.85047 20.3852 4.72369 20.4559 4.58063C20.5266 4.43756 20.5668 4.28136 20.5738 4.12194C20.5809 3.96252 20.5547 3.80337 20.4969 3.65463C20.4391 3.50589 20.351 3.37081 20.2381 3.25797C20.1253 3.14513 19.9902 3.05701 19.8414 2.99922C19.6927 2.94142 19.5336 2.91522 19.3741 2.92226C19.2147 2.92931 19.0585 2.96946 18.9155 3.04016C18.7724 3.11086 18.6456 3.21055 18.5432 3.33291L16.8532 5.02291C16.6464 5.24193 16.5312 5.53172 16.5312 5.83291C16.5312 6.1341 16.6464 6.42389 16.8532 6.64291C16.945 6.75323 17.0596 6.84248 17.189 6.9046C17.3184 6.96672 17.4597 7.00025 17.6032 7.00291Z" fill="black"/>
<path d="M18.313 26.8629C18.0252 26.7211 17.6929 26.6994 17.3891 26.8025C17.0853 26.9057 16.835 27.1252 16.693 27.4129L14.443 31.8729C14.3731 32.016 14.3322 32.1715 14.3225 32.3304C14.3129 32.4894 14.3347 32.6487 14.3867 32.7992C14.4387 32.9497 14.5199 33.0884 14.6257 33.2075C14.7315 33.3265 14.8597 33.4235 15.003 33.4929C15.1766 33.5677 15.364 33.6052 15.553 33.6029C15.7756 33.6058 15.9942 33.544 16.1824 33.4251C16.3705 33.3062 16.5201 33.1352 16.613 32.9329L18.863 28.4829C18.9944 28.1936 19.0107 27.865 18.9086 27.5641C18.8064 27.2632 18.5934 27.0124 18.313 26.8629Z" fill="black"/>
<path d="M23.4329 26.8628C23.2911 26.7928 23.1369 26.7515 22.9792 26.7413C22.8214 26.7311 22.6632 26.7521 22.5136 26.8032C22.3639 26.8543 22.2259 26.9345 22.1074 27.0391C21.9889 27.1437 21.8922 27.2707 21.8229 27.4128L19.5729 31.8728C19.4311 32.1606 19.4093 32.4929 19.5125 32.7967C19.6156 33.1005 19.8352 33.3509 20.1229 33.4928C20.2971 33.5657 20.4841 33.6031 20.6729 33.6028C20.8969 33.6064 21.1171 33.545 21.307 33.4262C21.4969 33.3073 21.6483 33.1359 21.7429 32.9328L23.9829 28.4828C24.1168 28.1939 24.1344 27.8644 24.032 27.5628C23.9296 27.2612 23.7151 27.0106 23.4329 26.8628Z" fill="black"/>
<path d="M28.563 26.8629C28.2752 26.7211 27.9429 26.6994 27.6391 26.8025C27.3353 26.9057 27.0849 27.1252 26.943 27.4129L24.693 31.8729C24.5512 32.1607 24.5295 32.493 24.6326 32.7968C24.7357 33.1006 24.9553 33.351 25.243 33.4929C25.4204 33.5668 25.6108 33.6043 25.803 33.6029C26.0256 33.6058 26.2442 33.544 26.4324 33.4251C26.6205 33.3062 26.7701 33.1352 26.863 32.9329L29.163 28.4829C29.2907 28.1876 29.2997 27.8543 29.1879 27.5526C29.0761 27.2508 28.8523 27.0038 28.563 26.8629Z" fill="black"/>
<path d="M16.6932 9.20288C16.3057 8.44475 15.7491 7.78576 15.0666 7.27673C14.3841 6.76769 13.5937 6.42222 12.7566 6.26694C11.9194 6.11167 11.0577 6.15074 10.2381 6.38115C9.41837 6.61155 8.66255 7.02714 8.02888 7.59585C7.39522 8.16457 6.90065 8.87122 6.58328 9.66131C6.26592 10.4514 6.13425 11.3038 6.19844 12.1529C6.26263 13.0019 6.52096 13.8248 6.95351 14.5582C7.38605 15.2916 7.98125 15.9159 8.69322 16.3829C9.23535 15.3606 10.0152 14.4836 10.9672 13.8257C11.9191 13.1679 13.0153 12.7485 14.1632 12.6029C14.7436 11.2957 15.6079 10.1343 16.6932 9.20288Z" fill="black"/>
</svg>
