<svg width="28" height="25" viewBox="0 0 28 25" fill="none" xmlns="http://www.w3.org/2000/svg">
<path d="M22.3083 5.84021C22.0683 5.84021 21.8284 5.84021 21.5984 5.84021C21.0786 4.14929 20.0304 2.66958 18.6075 1.61841C17.1847 0.567236 15.4624 0 13.6934 0C11.9244 0 10.202 0.567236 8.77916 1.61841C7.35635 2.66958 6.30811 4.14929 5.78836 5.84021H5.42836C4.04555 5.89992 2.73919 6.49126 1.78183 7.49086C0.824467 8.49046 0.290039 9.82111 0.290039 11.2052C0.290039 12.5893 0.824467 13.92 1.78183 14.9196C2.73919 15.9192 4.04555 16.5105 5.42836 16.5702H22.3083C23.6964 16.5104 25.0077 15.9169 25.9688 14.9136C26.9298 13.9102 27.4662 12.5745 27.4662 11.1852C27.4662 9.79588 26.9298 8.46021 25.9688 7.45687C25.0077 6.45354 23.6964 5.86004 22.3083 5.80021V5.84021Z" fill="black"/>
<path d="M8.66847 18.2202C8.3807 18.0784 8.04839 18.0567 7.7446 18.1598C7.44081 18.263 7.19042 18.4825 7.04848 18.7702L4.79848 23.2302C4.72861 23.3733 4.68767 23.5288 4.67801 23.6877C4.66835 23.8467 4.69015 24.006 4.74217 24.1565C4.7942 24.307 4.87541 24.4457 4.98117 24.5648C5.08693 24.6838 5.21515 24.7808 5.35848 24.8502C5.53209 24.925 5.71947 24.9625 5.90848 24.9602C6.13105 24.9631 6.34969 24.9013 6.53784 24.7824C6.726 24.6635 6.87559 24.4925 6.96848 24.2902L9.21848 19.8402C9.34992 19.5509 9.36621 19.2223 9.26404 18.9214C9.16187 18.6205 8.94891 18.3697 8.66847 18.2202Z" fill="black"/>
<path d="M13.7884 18.2203C13.6466 18.1503 13.4924 18.1089 13.3346 18.0987C13.1769 18.0885 13.0186 18.1095 12.869 18.1606C12.7194 18.2117 12.5814 18.2919 12.4629 18.3965C12.3443 18.5011 12.2476 18.6282 12.1784 18.7703L9.92835 23.2303C9.78654 23.518 9.76481 23.8503 9.86794 24.1541C9.97108 24.4579 10.1906 24.7083 10.4784 24.8503C10.6526 24.9231 10.8395 24.9605 11.0283 24.9603C11.2523 24.9638 11.4726 24.9025 11.6625 24.7836C11.8524 24.6647 12.0037 24.4933 12.0984 24.2903L14.3384 19.8403C14.4723 19.5513 14.4899 19.2218 14.3875 18.9202C14.2851 18.6186 14.0705 18.368 13.7884 18.2203Z" fill="black"/>
<path d="M18.9185 18.2202C18.6307 18.0784 18.2984 18.0567 17.9946 18.1598C17.6908 18.263 17.4404 18.4825 17.2985 18.7702L15.0485 23.2302C14.9067 23.518 14.8849 23.8503 14.9881 24.1541C15.0912 24.4579 15.3108 24.7083 15.5985 24.8502C15.7759 24.9241 15.9663 24.9616 16.1585 24.9602C16.381 24.9631 16.5997 24.9013 16.7878 24.7824C16.976 24.6635 17.1256 24.4925 17.2185 24.2902L19.5185 19.8402C19.6462 19.5449 19.6551 19.2116 19.5434 18.9099C19.4316 18.6081 19.2078 18.3611 18.9185 18.2202Z" fill="black"/>
</svg>
