<svg width="29" height="29" viewBox="0 0 29 29" fill="none" xmlns="http://www.w3.org/2000/svg">
<path d="M7.74005 8.95001C7.5769 8.95085 7.41518 8.91949 7.26418 8.85771C7.11317 8.79594 6.97585 8.70497 6.86006 8.59002L4.18005 5.91002C3.94534 5.6753 3.81348 5.35696 3.81348 5.02502C3.81348 4.69308 3.94534 4.37473 4.18005 4.14001C4.41477 3.9053 4.73311 3.77344 5.06505 3.77344C5.39699 3.77344 5.71534 3.9053 5.95006 4.14001L8.62006 6.82001C8.79332 6.99479 8.91113 7.21683 8.95872 7.45829C9.00632 7.69975 8.98159 7.94988 8.88762 8.17734C8.79365 8.40479 8.63461 8.59945 8.43047 8.73691C8.22632 8.87436 7.98615 8.94849 7.74005 8.95001Z" fill="black"/>
<path d="M5.03999 15.38H1.25C0.918479 15.38 0.600525 15.2483 0.366104 15.0139C0.131684 14.7795 0 14.4615 0 14.13C0 13.7985 0.131684 13.4805 0.366104 13.2461C0.600525 13.0117 0.918479 12.88 1.25 12.88H5.03999C5.37151 12.88 5.68945 13.0117 5.92387 13.2461C6.15829 13.4805 6.28999 13.7985 6.28999 14.13C6.28999 14.4615 6.15829 14.7795 5.92387 15.0139C5.68945 15.2483 5.37151 15.38 5.03999 15.38Z" fill="black"/>
<path d="M5.04012 24.49C4.79402 24.4885 4.55385 24.4144 4.34971 24.2769C4.14557 24.1395 3.98654 23.9448 3.89257 23.7174C3.7986 23.4899 3.77385 23.2398 3.82145 22.9983C3.86905 22.7568 3.98686 22.5348 4.16012 22.36L6.84013 19.68C7.07887 19.4678 7.3898 19.355 7.70908 19.3649C8.02837 19.3747 8.33177 19.5064 8.557 19.7329C8.78223 19.9594 8.9122 20.2635 8.92022 20.5829C8.92824 20.9022 8.8137 21.2125 8.60012 21.45L5.95013 24.18C5.6986 24.3977 5.37221 24.5089 5.04012 24.49Z" fill="black"/>
<path d="M14.17 28.26C14.0054 28.2613 13.8423 28.2299 13.69 28.1675C13.5378 28.1052 13.3994 28.0132 13.2831 27.8968C13.1668 27.7805 13.0747 27.6422 13.0124 27.4899C12.9501 27.3376 12.9186 27.1745 12.92 27.01V23.23C12.92 22.8985 13.0516 22.5805 13.2861 22.3461C13.5205 22.1117 13.8384 21.98 14.17 21.98C14.5015 21.98 14.8194 22.1117 15.0538 22.3461C15.2883 22.5805 15.42 22.8985 15.42 23.23V27.01C15.4213 27.1745 15.3899 27.3376 15.3275 27.4899C15.2652 27.6422 15.1731 27.7805 15.0568 27.8968C14.9405 28.0132 14.8021 28.1052 14.6499 28.1675C14.4976 28.2299 14.3345 28.2613 14.17 28.26Z" fill="black"/>
<path d="M23.2801 24.4901C23.117 24.4909 22.9552 24.4595 22.8042 24.3978C22.6532 24.336 22.5159 24.245 22.4001 24.1301L19.7201 21.4501C19.6039 21.3338 19.5117 21.1959 19.4488 21.044C19.3859 20.8922 19.3535 20.7294 19.3535 20.5651C19.3535 20.4007 19.3859 20.2379 19.4488 20.0861C19.5117 19.9342 19.6039 19.7963 19.7201 19.6801C19.8363 19.5638 19.9743 19.4716 20.1261 19.4087C20.278 19.3458 20.4407 19.3135 20.6051 19.3135C20.7695 19.3135 20.9322 19.3458 21.0841 19.4087C21.2359 19.4716 21.3739 19.5638 21.4901 19.6801L24.1601 22.3601C24.3334 22.5348 24.4512 22.7569 24.4988 22.9983C24.5464 23.2398 24.5216 23.4899 24.4277 23.7174C24.3337 23.9448 24.1747 24.1395 23.9705 24.2769C23.7664 24.4144 23.5262 24.4885 23.2801 24.4901Z" fill="black"/>
<path d="M27.0398 15.38H23.2598C22.9282 15.38 22.6103 15.2483 22.3759 15.0139C22.1415 14.7795 22.0098 14.4615 22.0098 14.13C22.0098 13.7985 22.1415 13.4805 22.3759 13.2461C22.6103 13.0117 22.9282 12.88 23.2598 12.88H27.0398C27.3713 12.88 27.6892 13.0117 27.9236 13.2461C28.1581 13.4805 28.2898 13.7985 28.2898 14.13C28.2898 14.4615 28.1581 14.7795 27.9236 15.0139C27.6892 15.2483 27.3713 15.38 27.0398 15.38Z" fill="black"/>
<path d="M20.5997 8.94999C20.3536 8.94847 20.1134 8.87434 19.9093 8.73688C19.7051 8.59943 19.5461 8.40477 19.4521 8.17731C19.3582 7.94986 19.3334 7.69972 19.381 7.45826C19.4286 7.21681 19.5464 6.99477 19.7197 6.81999L22.3997 4.13999C22.6384 3.92776 22.9494 3.81498 23.2687 3.82481C23.5879 3.83464 23.8913 3.96633 24.1166 4.19285C24.3418 4.41936 24.4718 4.7235 24.4798 5.04284C24.4878 5.36217 24.3733 5.67246 24.1597 5.90999L21.4897 8.58999C21.251 8.82092 20.9318 8.95 20.5997 8.94999Z" fill="black"/>
<path d="M14.1699 6.29C13.8384 6.29 13.5204 6.1583 13.286 5.92388C13.0516 5.68946 12.9199 5.37152 12.9199 5.04V1.25C12.9199 0.918479 13.0516 0.60054 13.286 0.366119C13.5204 0.131699 13.8384 0 14.1699 0C14.5014 0 14.8194 0.131699 15.0538 0.366119C15.2882 0.60054 15.4199 0.918479 15.4199 1.25V5.04C15.4199 5.37152 15.2882 5.68946 15.0538 5.92388C14.8194 6.1583 14.5014 6.29 14.1699 6.29Z" fill="black"/>
<path d="M14.17 20.8C17.8537 20.8 20.84 17.8137 20.84 14.13C20.84 10.4462 17.8537 7.45996 14.17 7.45996C10.4863 7.45996 7.5 10.4462 7.5 14.13C7.5 17.8137 10.4863 20.8 14.17 20.8Z" fill="black"/>
</svg>
