<svg width="35" height="8" viewBox="0 0 35 8" fill="none" xmlns="http://www.w3.org/2000/svg">
<path d="M0.393848 6.74951V5.67285C0.490528 5.76074 0.604786 5.83984 0.736622 5.91016C0.871387 5.98047 1.01348 6.04053 1.16289 6.09033C1.31231 6.13721 1.46172 6.17383 1.61113 6.2002C1.76055 6.22656 1.89824 6.23975 2.02422 6.23975C2.46367 6.23975 2.79033 6.1665 3.0042 6.02002C3.221 5.87354 3.3294 5.66113 3.3294 5.38281C3.3294 5.2334 3.29277 5.10449 3.21953 4.99609C3.14922 4.88477 3.04961 4.78369 2.9207 4.69287C2.7918 4.60205 2.63945 4.51562 2.46367 4.43359C2.29082 4.34863 2.10479 4.26074 1.90557 4.16992C1.6917 4.05566 1.49248 3.93994 1.30791 3.82275C1.12334 3.70557 0.962208 3.57666 0.824512 3.43604C0.689747 3.29248 0.582813 3.13135 0.503712 2.95264C0.42754 2.77393 0.389454 2.56445 0.389454 2.32422C0.389454 2.02832 0.455372 1.77197 0.587208 1.55518C0.721973 1.33545 0.897755 1.15527 1.11455 1.01465C1.33428 0.871094 1.5833 0.765625 1.86162 0.698242C2.13994 0.62793 2.42412 0.592773 2.71416 0.592773C3.37334 0.592773 3.85381 0.66748 4.15557 0.816895V1.84961C3.79815 1.5918 3.33818 1.46289 2.77568 1.46289C2.62041 1.46289 2.46514 1.47754 2.30986 1.50684C2.15752 1.53613 2.01982 1.58447 1.89678 1.65186C1.77666 1.71924 1.67852 1.80566 1.60234 1.91113C1.52617 2.0166 1.48809 2.14404 1.48809 2.29346C1.48809 2.43408 1.51738 2.55566 1.57598 2.6582C1.63457 2.76074 1.71953 2.85449 1.83086 2.93945C1.94512 3.02441 2.08281 3.10791 2.24395 3.18994C2.40801 3.26904 2.59697 3.35547 2.81084 3.44922C3.03057 3.56348 3.23711 3.68359 3.43047 3.80957C3.62676 3.93555 3.79815 4.07471 3.94463 4.22705C4.09404 4.37939 4.21123 4.54932 4.29619 4.73682C4.38408 4.92139 4.42803 5.13232 4.42803 5.36963C4.42803 5.68896 4.36357 5.9585 4.23467 6.17822C4.10576 6.39795 3.93145 6.57666 3.71172 6.71436C3.49492 6.85205 3.24443 6.95166 2.96025 7.01318C2.67607 7.07471 2.37578 7.10547 2.05938 7.10547C1.95391 7.10547 1.82354 7.09668 1.66826 7.0791C1.51592 7.06445 1.35918 7.04102 1.19805 7.00879C1.03691 6.97949 0.884571 6.94287 0.741016 6.89893C0.597462 6.85498 0.481739 6.80518 0.393848 6.74951ZM7.34969 4.71484V7H6.30819V0.698242H8.21981C8.94344 0.698242 9.50447 0.866699 9.90291 1.20361C10.3013 1.54053 10.5006 2.01514 10.5006 2.62744C10.5006 3.23975 10.2926 3.74072 9.87654 4.13037C9.46053 4.52002 8.89803 4.71484 8.18904 4.71484H7.34969ZM7.34969 1.55957V3.8623H8.02645C8.47469 3.8623 8.816 3.7583 9.05037 3.55029C9.28475 3.34229 9.40194 3.04932 9.40194 2.67139C9.40194 1.93018 8.97127 1.55957 8.10994 1.55957H7.34969ZM17.162 7H15.9403L14.9339 5.3125C14.8431 5.15723 14.7538 5.02539 14.6659 4.91699C14.5809 4.80566 14.493 4.71484 14.4022 4.64453C14.3143 4.57422 14.2176 4.52295 14.1122 4.49072C14.0067 4.4585 13.888 4.44238 13.7562 4.44238H13.3343V7H12.2928V0.698242H14.3671C14.663 0.698242 14.9354 0.733398 15.1844 0.803711C15.4335 0.874023 15.6503 0.980957 15.8348 1.12451C16.0194 1.26514 16.163 1.44238 16.2655 1.65625C16.371 1.86719 16.4237 2.11475 16.4237 2.39893C16.4237 2.62158 16.39 2.82666 16.3226 3.01416C16.2582 3.19873 16.1644 3.36426 16.0414 3.51074C15.9213 3.6543 15.7748 3.77734 15.6019 3.87988C15.432 3.98242 15.2401 4.06152 15.0262 4.11719V4.13477C15.1405 4.19922 15.2401 4.271 15.3251 4.3501C15.41 4.42627 15.4906 4.50537 15.5668 4.5874C15.6429 4.66943 15.7176 4.76318 15.7909 4.86865C15.8671 4.97119 15.9505 5.09131 16.0414 5.229L17.162 7ZM13.3343 1.54639V3.59424H14.2045C14.3656 3.59424 14.5135 3.56934 14.6483 3.51953C14.786 3.46973 14.9046 3.39795 15.0043 3.3042C15.1039 3.21045 15.1815 3.09619 15.2372 2.96143C15.2928 2.82666 15.3207 2.67578 15.3207 2.50879C15.3207 2.20703 15.2255 1.97119 15.035 1.80127C14.8446 1.63135 14.5707 1.54639 14.2132 1.54639H13.3343ZM19.6925 7H18.6159V0.698242H19.6925V7ZM27.3119 7H26.1694L23.1591 2.36816C23.0829 2.25098 23.0199 2.12939 22.9701 2.00342H22.9438C22.9672 2.13818 22.9789 2.42676 22.9789 2.86914V7H21.9682V0.698242H23.1855L26.0947 5.22021C26.2177 5.40771 26.2968 5.53662 26.332 5.60693H26.3495C26.3202 5.43994 26.3056 5.15723 26.3056 4.75879V0.698242H27.3119V7ZM34.5139 6.56934C33.8576 6.92676 33.1267 7.10547 32.321 7.10547C31.3894 7.10547 30.635 6.81543 30.0578 6.23535C29.4807 5.65527 29.1921 4.8877 29.1921 3.93262C29.1921 2.95703 29.507 2.15723 30.1369 1.5332C30.7697 0.90625 31.5725 0.592773 32.5451 0.592773C33.2453 0.592773 33.8342 0.695312 34.3117 0.900391V1.97705C33.8283 1.65479 33.2526 1.49365 32.5847 1.49365C31.9138 1.49365 31.363 1.71484 30.9323 2.15723C30.5046 2.59961 30.2907 3.17236 30.2907 3.87549C30.2907 4.59912 30.4753 5.16895 30.8444 5.58496C31.2136 5.99805 31.7146 6.20459 32.3474 6.20459C32.781 6.20459 33.156 6.12109 33.4724 5.9541V4.45557H32.1452V3.57666H34.5139V6.56934Z" fill="black"/>
</svg>
