<svg width="28" height="32" viewBox="0 0 28 32" fill="none" xmlns="http://www.w3.org/2000/svg">
<path d="M13.92 0L11.52 4.38C11.4092 4.58498 11.2247 4.74027 11.0038 4.81452C10.7829 4.88876 10.5421 4.87643 10.33 4.78L8.32999 3.92L9.44998 11.14C9.46682 11.2271 9.45497 11.3173 9.4162 11.397C9.37743 11.4768 9.31383 11.5419 9.23495 11.5824C9.15608 11.623 9.06617 11.6369 8.97873 11.622C8.89129 11.6072 8.81104 11.5643 8.75 11.5L5.51999 8.4L5.03998 9.83C4.95277 10.0856 4.77298 10.2992 4.53604 10.4288C4.29911 10.5584 4.02222 10.5945 3.75998 10.53L0.569977 9.73L1.47998 14.15C1.53354 14.3948 1.49866 14.6506 1.3815 14.8722C1.26434 15.0937 1.07248 15.2665 0.839996 15.36L0 15.71L6.22998 21.22C6.45134 21.4137 6.61578 21.6641 6.70563 21.9442C6.79548 22.2243 6.80736 22.5236 6.73999 22.81L6.37997 24.46L12.28 23.68C12.4195 23.666 12.5603 23.6814 12.6935 23.7254C12.8266 23.7693 12.9489 23.8407 13.0527 23.935C13.1564 24.0293 13.2391 24.1444 13.2955 24.2727C13.3519 24.4011 13.3807 24.5398 13.38 24.68L13.23 31.53H14.61L14.46 24.68C14.4593 24.5398 14.4881 24.4011 14.5445 24.2727C14.6009 24.1444 14.6836 24.0293 14.7873 23.935C14.891 23.8407 15.0134 23.7693 15.1465 23.7254C15.2797 23.6814 15.4205 23.666 15.56 23.68L21.46 24.46L21.09 22.81C21.0314 22.5218 21.0495 22.2232 21.1425 21.9442C21.2356 21.6652 21.4002 21.4154 21.62 21.22L27.84 15.71L26.18 15L27.27 9.7L23.13 10.7L22.32 8.4L19.13 11.5C19.0689 11.5643 18.9887 11.6072 18.9012 11.622C18.8138 11.6369 18.7239 11.623 18.645 11.5824C18.5661 11.5419 18.5025 11.4768 18.4638 11.397C18.425 11.3173 18.4132 11.2271 18.43 11.14L19.52 3.92L17.52 4.78C17.3072 4.87171 17.068 4.8816 16.8484 4.80778C16.6288 4.73396 16.4442 4.58162 16.33 4.38L13.92 0Z" fill="black"/>
</svg>
