<svg width="43" height="54" viewBox="0 0 43 54" fill="none" xmlns="http://www.w3.org/2000/svg">
<g filter="url(#filter0_d)">
<path d="M11.1069 39.4102V48H9.7475V41.0742C9.50141 41.25 9.23578 41.4004 8.95063 41.5254C8.66938 41.6465 8.34711 41.7539 7.98383 41.8477V40.6875C8.21039 40.6133 8.42914 40.5352 8.64008 40.4531C8.85102 40.3711 9.05805 40.2793 9.26117 40.1777C9.4682 40.0762 9.67523 39.9629 9.88227 39.8379C10.0932 39.7129 10.31 39.5703 10.5327 39.4102H11.1069ZM19.4263 43.3418C19.4263 44.1816 19.3345 44.9043 19.1509 45.5098C18.9712 46.1152 18.7212 46.6133 18.4009 47.0039C18.0845 47.3945 17.7114 47.6836 17.2817 47.8711C16.8559 48.0547 16.397 48.1465 15.9048 48.1465C15.7446 48.1465 15.5825 48.1367 15.4184 48.1172C15.2583 48.0977 15.104 48.0723 14.9555 48.041C14.811 48.0098 14.6782 47.9766 14.5571 47.9414C14.4399 47.9023 14.3423 47.8652 14.2641 47.8301V46.6055C14.3462 46.6562 14.4477 46.709 14.5688 46.7637C14.6899 46.8145 14.8208 46.8613 14.9614 46.9043C15.1059 46.9434 15.2544 46.9766 15.4067 47.0039C15.563 47.0273 15.7134 47.0391 15.8579 47.0391C16.1899 47.0391 16.4907 46.9746 16.7602 46.8457C17.0337 46.7168 17.2661 46.5254 17.4575 46.2715C17.6489 46.0176 17.7954 45.7031 17.897 45.3281C18.0024 44.9492 18.0552 44.5117 18.0552 44.0156H18.0317C17.9614 44.1406 17.8677 44.2598 17.7505 44.373C17.6372 44.4824 17.5063 44.5801 17.3579 44.666C17.2095 44.748 17.0434 44.8145 16.8598 44.8652C16.6802 44.916 16.4868 44.9414 16.2798 44.9414C15.9282 44.9414 15.6001 44.8809 15.2954 44.7598C14.9946 44.6348 14.7329 44.459 14.5102 44.2324C14.2876 44.0059 14.1118 43.7305 13.9829 43.4062C13.8579 43.082 13.7954 42.7207 13.7954 42.3223C13.7954 41.8848 13.8677 41.4902 14.0122 41.1387C14.1567 40.7832 14.3559 40.4824 14.6098 40.2363C14.8638 39.9863 15.1626 39.7949 15.5063 39.6621C15.8501 39.5254 16.2231 39.457 16.6255 39.457C17.0044 39.457 17.3618 39.5293 17.6977 39.6738C18.0376 39.8145 18.3345 40.041 18.5884 40.3535C18.8462 40.6621 19.0493 41.0625 19.1977 41.5547C19.3501 42.0469 19.4263 42.6426 19.4263 43.3418ZM18.0083 42.4453C18.0083 42.1641 17.9712 41.9082 17.897 41.6777C17.8266 41.4473 17.727 41.25 17.5981 41.0859C17.4692 40.9219 17.3149 40.7949 17.1352 40.7051C16.9595 40.6152 16.7661 40.5703 16.5552 40.5703C16.3677 40.5703 16.188 40.6094 16.0161 40.6875C15.8481 40.7617 15.6997 40.8691 15.5708 41.0098C15.4458 41.1504 15.3462 41.3203 15.272 41.5195C15.1977 41.7188 15.1606 41.9395 15.1606 42.1816C15.1606 42.4473 15.1958 42.6816 15.2661 42.8848C15.3403 43.0879 15.4419 43.2598 15.5708 43.4004C15.6997 43.5371 15.854 43.6426 16.0337 43.7168C16.2173 43.7871 16.4184 43.8223 16.6372 43.8223C16.8325 43.8223 17.0122 43.7871 17.1763 43.7168C17.3442 43.6426 17.4888 43.5449 17.6098 43.4238C17.7348 43.2988 17.8325 43.1523 17.9028 42.9844C17.9731 42.8164 18.0083 42.6367 18.0083 42.4453ZM24.1948 48.1406C23.3198 48.1406 22.6362 47.7832 22.1441 47.0684C21.6558 46.3535 21.4116 45.3203 21.4116 43.9688C21.4116 42.4844 21.6675 41.3613 22.1792 40.5996C22.6909 39.8379 23.4292 39.457 24.3941 39.457C26.2417 39.457 27.1655 40.8926 27.1655 43.7637C27.1655 45.1855 26.9038 46.2715 26.3804 47.0215C25.8609 47.7676 25.1323 48.1406 24.1948 48.1406ZM24.3296 40.541C23.3101 40.541 22.8003 41.6641 22.8003 43.9102C22.8003 46.0117 23.3003 47.0625 24.3003 47.0625C25.2847 47.0625 25.7769 45.9941 25.7769 43.8574C25.7769 41.6465 25.2945 40.541 24.3296 40.541ZM34.0084 39.5977V45.0234H35.2564V46.1543H34.0084V48H32.69V46.1543H28.8873V45.0117C29.231 44.625 29.5826 44.207 29.942 43.7578C30.3052 43.3047 30.6529 42.8438 30.9849 42.375C31.3209 41.9023 31.6314 41.4297 31.9166 40.957C32.2017 40.4844 32.442 40.0312 32.6373 39.5977H34.0084ZM32.69 45.0234V41.4961C32.2642 42.2617 31.8423 42.9297 31.4244 43.5C31.0103 44.0703 30.6216 44.5781 30.2584 45.0234H32.69Z" fill="white"/>
<path d="M20.92 3L18.52 7.38C18.4092 7.58498 18.2247 7.74027 18.0038 7.81452C17.7829 7.88876 17.5421 7.87643 17.33 7.78L15.33 6.92L16.45 14.14C16.4668 14.2271 16.455 14.3173 16.4162 14.397C16.3774 14.4768 16.3138 14.5419 16.235 14.5824C16.1561 14.623 16.0662 14.6369 15.9787 14.622C15.8913 14.6072 15.811 14.5643 15.75 14.5L12.52 11.4L12.04 12.83C11.9528 13.0856 11.773 13.2992 11.536 13.4288C11.2991 13.5584 11.0222 13.5945 10.76 13.53L7.56998 12.73L8.47998 17.15C8.53354 17.3948 8.49866 17.6506 8.3815 17.8722C8.26434 18.0937 8.07248 18.2665 7.84 18.36L7 18.71L13.23 24.22C13.4513 24.4137 13.6158 24.6641 13.7056 24.9442C13.7955 25.2243 13.8074 25.5236 13.74 25.81L13.38 27.46L19.28 26.68C19.4195 26.666 19.5603 26.6814 19.6935 26.7254C19.8266 26.7693 19.9489 26.8407 20.0527 26.935C20.1564 27.0293 20.2391 27.1444 20.2955 27.2727C20.3519 27.4011 20.3807 27.5398 20.38 27.68L20.23 31.53H21.61L21.46 27.68C21.4593 27.5398 21.4881 27.4011 21.5445 27.2727C21.6009 27.1444 21.6836 27.0293 21.7873 26.935C21.891 26.8407 22.0134 26.7693 22.1465 26.7254C22.2797 26.6814 22.4205 26.666 22.56 26.68L28.46 27.46L28.09 25.81C28.0314 25.5218 28.0495 25.2232 28.1425 24.9442C28.2356 24.6652 28.4002 24.4154 28.62 24.22L34.84 18.71L33.18 18L34.27 12.7L30.13 13.7L29.32 11.4L26.13 14.5C26.0689 14.5643 25.9887 14.6072 25.9012 14.622C25.8138 14.6369 25.7239 14.623 25.645 14.5824C25.5661 14.5419 25.5025 14.4768 25.4638 14.397C25.425 14.3173 25.4132 14.2271 25.43 14.14L26.52 6.92L24.52 7.78C24.3072 7.87171 24.068 7.8816 23.8484 7.80778C23.6288 7.73396 23.4442 7.58162 23.33 7.38L20.92 3Z" fill="white"/>
</g>
<defs>
<filter id="filter0_d" x="-4" y="0" width="51" height="56" filterUnits="userSpaceOnUse" color-interpolation-filters="sRGB">
<feFlood flood-opacity="0" result="BackgroundImageFix"/>
<feColorMatrix in="SourceAlpha" type="matrix" values="0 0 0 0 0 0 0 0 0 0 0 0 0 0 0 0 0 0 127 0"/>
<feOffset dy="1"/>
<feGaussianBlur stdDeviation="2"/>
<feColorMatrix type="matrix" values="0 0 0 0 0 0 0 0 0 0 0 0 0 0 0 0 0 0 0.25 0"/>
<feBlend mode="normal" in2="BackgroundImageFix" result="effect1_dropShadow"/>
<feBlend mode="normal" in="SourceGraphic" in2="effect1_dropShadow" result="shape"/>
</filter>
</defs>
</svg>
