<svg width="133" height="120" viewBox="0 0 133 120" fill="none" xmlns="http://www.w3.org/2000/svg">
<g filter="url(#filter0_d)">
<g filter="url(#filter1_dd)">
<circle cx="41" cy="59.0001" r="15" fill="white"/>
<path d="M44 52.0001L35 59.0001L44 66.5001V52.0001Z" fill="black"/>
</g>
<path d="M73.9395 14H72.4102L71.6543 11.8613H68.3496L67.623 14H66.0996L69.2461 5.59766H70.8164L73.9395 14ZM71.2852 10.7246L70.1191 7.37305C70.084 7.26367 70.0469 7.08789 70.0078 6.8457H69.9844C69.9492 7.06836 69.9102 7.24414 69.8672 7.37305L68.7129 10.7246H71.2852ZM82.335 10.6016C82.335 12.9609 81.2178 14.1406 78.9834 14.1406C76.8428 14.1406 75.7725 13.0059 75.7725 10.7363V5.59766H77.167V10.4492C77.167 12.0977 77.8077 12.9219 79.0889 12.9219C80.3233 12.9219 80.9405 12.127 80.9405 10.5371V5.59766H82.335V10.6016ZM90.6602 6.78125H88.2462V14H86.8516V6.78125H84.4434V5.59766H90.6602V6.78125ZM99.3136 10.6016C99.3136 12.9609 98.1964 14.1406 95.962 14.1406C93.8214 14.1406 92.7511 13.0059 92.7511 10.7363V5.59766H94.1456V10.4492C94.1456 12.0977 94.7862 12.9219 96.0675 12.9219C97.3019 12.9219 97.9191 12.127 97.9191 10.5371V5.59766H99.3136V10.6016ZM111.272 14H109.889V8.5625C109.889 8.11719 109.916 7.57227 109.971 6.92773H109.947C109.861 7.29492 109.785 7.55859 109.719 7.71875L107.211 14H106.25L103.736 7.76562C103.666 7.58203 103.592 7.30273 103.514 6.92773H103.49C103.522 7.26367 103.537 7.8125 103.537 8.57422V14H102.248V5.59766H104.211L106.42 11.1934C106.588 11.623 106.697 11.9434 106.748 12.1543H106.778C106.922 11.7129 107.039 11.3848 107.129 11.1699L109.379 5.59766H111.272V14ZM121.431 14H119.907L115.894 7.82422C115.792 7.66797 115.708 7.50586 115.642 7.33789H115.607C115.638 7.51758 115.654 7.90234 115.654 8.49219V14H114.306V5.59766H115.929L119.808 11.627C119.972 11.877 120.077 12.0488 120.124 12.1426H120.148C120.109 11.9199 120.089 11.543 120.089 11.0117V5.59766H121.431V14ZM69.6035 21.4102V30H68.2441V23.0742C67.998 23.25 67.7324 23.4004 67.4473 23.5254C67.166 23.6465 66.8438 23.7539 66.4805 23.8477V22.6875C66.707 22.6133 66.9258 22.5352 67.1367 22.4531C67.3477 22.3711 67.5547 22.2793 67.7578 22.1777C67.9648 22.0762 68.1719 21.9629 68.3789 21.8379C68.5898 21.7129 68.8066 21.5703 69.0293 21.4102H69.6035ZM77.9229 25.3418C77.9229 26.1816 77.8311 26.9043 77.6475 27.5098C77.4678 28.1152 77.2178 28.6133 76.8975 29.0039C76.5811 29.3945 76.208 29.6836 75.7784 29.8711C75.3526 30.0547 74.8936 30.1465 74.4014 30.1465C74.2413 30.1465 74.0791 30.1367 73.9151 30.1172C73.7549 30.0977 73.6006 30.0723 73.4522 30.041C73.3077 30.0098 73.1748 29.9766 73.0538 29.9414C72.9366 29.9023 72.8389 29.8652 72.7608 29.8301V28.6055C72.8428 28.6562 72.9444 28.709 73.0655 28.7637C73.1866 28.8145 73.3174 28.8613 73.458 28.9043C73.6026 28.9434 73.751 28.9766 73.9034 29.0039C74.0596 29.0273 74.21 29.0391 74.3545 29.0391C74.6866 29.0391 74.9873 28.9746 75.2569 28.8457C75.5303 28.7168 75.7627 28.5254 75.9541 28.2715C76.1455 28.0176 76.292 27.7031 76.3936 27.3281C76.4991 26.9492 76.5518 26.5117 76.5518 26.0156H76.5284C76.458 26.1406 76.3643 26.2598 76.2471 26.373C76.1338 26.4824 76.003 26.5801 75.8545 26.666C75.7061 26.748 75.5401 26.8145 75.3565 26.8652C75.1768 26.916 74.9834 26.9414 74.7764 26.9414C74.4248 26.9414 74.0967 26.8809 73.792 26.7598C73.4913 26.6348 73.2295 26.459 73.0069 26.2324C72.7842 26.0059 72.6084 25.7305 72.4795 25.4062C72.3545 25.082 72.292 24.7207 72.292 24.3223C72.292 23.8848 72.3643 23.4902 72.5088 23.1387C72.6534 22.7832 72.8526 22.4824 73.1065 22.2363C73.3604 21.9863 73.6592 21.7949 74.003 21.6621C74.3467 21.5254 74.7198 21.457 75.1221 21.457C75.501 21.457 75.8584 21.5293 76.1944 21.6738C76.5342 21.8145 76.8311 22.041 77.085 22.3535C77.3428 22.6621 77.5459 23.0625 77.6944 23.5547C77.8467 24.0469 77.9229 24.6426 77.9229 25.3418ZM76.5049 24.4453C76.5049 24.1641 76.4678 23.9082 76.3936 23.6777C76.3233 23.4473 76.2237 23.25 76.0948 23.0859C75.9659 22.9219 75.8116 22.7949 75.6319 22.7051C75.4561 22.6152 75.2627 22.5703 75.0518 22.5703C74.8643 22.5703 74.6846 22.6094 74.5127 22.6875C74.3448 22.7617 74.1963 22.8691 74.0674 23.0098C73.9424 23.1504 73.8428 23.3203 73.7686 23.5195C73.6944 23.7188 73.6573 23.9395 73.6573 24.1816C73.6573 24.4473 73.6924 24.6816 73.7627 24.8848C73.837 25.0879 73.9385 25.2598 74.0674 25.4004C74.1963 25.5371 74.3506 25.6426 74.5303 25.7168C74.7139 25.7871 74.9151 25.8223 75.1338 25.8223C75.3291 25.8223 75.5088 25.7871 75.6729 25.7168C75.8409 25.6426 75.9854 25.5449 76.1065 25.4238C76.2315 25.2988 76.3291 25.1523 76.3995 24.9844C76.4698 24.8164 76.5049 24.6367 76.5049 24.4453ZM82.6915 30.1406C81.8165 30.1406 81.1329 29.7832 80.6407 29.0684C80.1524 28.3535 79.9083 27.3203 79.9083 25.9688C79.9083 24.4844 80.1641 23.3613 80.6759 22.5996C81.1876 21.8379 81.9259 21.457 82.8907 21.457C84.7384 21.457 85.6622 22.8926 85.6622 25.7637C85.6622 27.1855 85.4005 28.2715 84.877 29.0215C84.3575 29.7676 83.629 30.1406 82.6915 30.1406ZM82.8263 22.541C81.8067 22.541 81.297 23.6641 81.297 25.9102C81.297 28.0117 81.797 29.0625 82.797 29.0625C83.7813 29.0625 84.2735 27.9941 84.2735 25.8574C84.2735 23.6465 83.7911 22.541 82.8263 22.541ZM92.505 21.5977V27.0234H93.753V28.1543H92.505V30H91.1866V28.1543H87.3839V27.0117C87.7277 26.625 88.0792 26.207 88.4386 25.7578C88.8019 25.3047 89.1495 24.8438 89.4816 24.375C89.8175 23.9023 90.128 23.4297 90.4132 22.957C90.6984 22.4844 90.9386 22.0312 91.1339 21.5977H92.505ZM91.1866 27.0234V23.4961C90.7609 24.2617 90.339 24.9297 89.921 25.5C89.507 26.0703 89.1183 26.5781 88.755 27.0234H91.1866Z" fill="white"/>
<g filter="url(#filter2_dd)">
<circle cx="84" cy="59.0002" r="15" transform="rotate(180 84 59.0002)" fill="white"/>
<path d="M81 66.0002L90 59.0002L81 51.5002L81 66.0002Z" fill="black"/>
</g>
<path d="M40.92 3L38.52 7.38C38.4092 7.58498 38.2247 7.74027 38.0038 7.81452C37.7829 7.88876 37.5421 7.87643 37.33 7.78L35.33 6.92L36.45 14.14C36.4668 14.2271 36.455 14.3173 36.4162 14.397C36.3774 14.4768 36.3138 14.5419 36.235 14.5824C36.1561 14.623 36.0662 14.6369 35.9787 14.622C35.8913 14.6072 35.811 14.5643 35.75 14.5L32.52 11.4L32.04 12.83C31.9528 13.0856 31.773 13.2992 31.536 13.4288C31.2991 13.5584 31.0222 13.5945 30.76 13.53L27.57 12.73L28.48 17.15C28.5335 17.3948 28.4987 17.6506 28.3815 17.8722C28.2643 18.0937 28.0725 18.2665 27.84 18.36L27 18.71L33.23 24.22C33.4513 24.4137 33.6158 24.6641 33.7056 24.9442C33.7955 25.2243 33.8074 25.5236 33.74 25.81L33.38 27.46L39.28 26.68C39.4195 26.666 39.5603 26.6814 39.6935 26.7254C39.8266 26.7693 39.9489 26.8407 40.0527 26.935C40.1564 27.0293 40.2391 27.1444 40.2955 27.2727C40.3519 27.4011 40.3807 27.5398 40.38 27.68L40.23 31.53H41.61L41.46 27.68C41.4593 27.5398 41.4881 27.4011 41.5445 27.2727C41.6009 27.1444 41.6836 27.0293 41.7873 26.935C41.891 26.8407 42.0134 26.7693 42.1465 26.7254C42.2797 26.6814 42.4205 26.666 42.56 26.68L48.46 27.46L48.09 25.81C48.0314 25.5218 48.0495 25.2232 48.1425 24.9442C48.2356 24.6652 48.4002 24.4154 48.62 24.22L54.84 18.71L53.18 18L54.27 12.7L50.13 13.7L49.32 11.4L46.13 14.5C46.0689 14.5643 45.9887 14.6072 45.9012 14.622C45.8138 14.6369 45.7239 14.623 45.645 14.5824C45.5661 14.5419 45.5025 14.4768 45.4638 14.397C45.425 14.3173 45.4132 14.2271 45.43 14.14L46.52 6.92L44.52 7.78C44.3072 7.87171 44.068 7.8816 43.8484 7.80778C43.6288 7.73396 43.4442 7.58162 43.33 7.38L40.92 3Z" fill="white"/>
</g>
<defs>
<filter id="filter0_d" x="22" y="-1.99988" width="115" height="86.0002" filterUnits="userSpaceOnUse" color-interpolation-filters="sRGB">
<feFlood flood-opacity="0" result="BackgroundImageFix"/>
<feColorMatrix in="SourceAlpha" type="matrix" values="0 0 0 0 0 0 0 0 0 0 0 0 0 0 0 0 0 0 127 0"/>
<feOffset dy="1"/>
<feGaussianBlur stdDeviation="2"/>
<feColorMatrix type="matrix" values="0 0 0 0 0 0 0 0 0 0 0 0 0 0 0 0 0 0 0.25 0"/>
<feBlend mode="normal" in2="BackgroundImageFix" result="effect1_dropShadow"/>
<feBlend mode="normal" in="SourceGraphic" in2="effect1_dropShadow" result="shape"/>
</filter>
<filter id="filter1_dd" x="0" y="29.0001" width="82" height="91" filterUnits="userSpaceOnUse" color-interpolation-filters="sRGB">
<feFlood flood-opacity="0" result="BackgroundImageFix"/>
<feColorMatrix in="SourceAlpha" type="matrix" values="0 0 0 0 0 0 0 0 0 0 0 0 0 0 0 0 0 0 127 0"/>
<feOffset dy="20"/>
<feGaussianBlur stdDeviation="13"/>
<feColorMatrix type="matrix" values="0 0 0 0 0 0 0 0 0 0 0 0 0 0 0 0 0 0 0.12 0"/>
<feBlend mode="normal" in2="BackgroundImageFix" result="effect1_dropShadow"/>
<feColorMatrix in="SourceAlpha" type="matrix" values="0 0 0 0 0 0 0 0 0 0 0 0 0 0 0 0 0 0 127 0"/>
<feOffset dy="5"/>
<feGaussianBlur stdDeviation="10"/>
<feColorMatrix type="matrix" values="0 0 0 0 0 0 0 0 0 0 0 0 0 0 0 0 0 0 0.2 0"/>
<feBlend mode="normal" in2="effect1_dropShadow" result="effect2_dropShadow"/>
<feBlend mode="normal" in="SourceGraphic" in2="effect2_dropShadow" result="shape"/>
</filter>
<filter id="filter2_dd" x="43" y="29.0002" width="82" height="91" filterUnits="userSpaceOnUse" color-interpolation-filters="sRGB">
<feFlood flood-opacity="0" result="BackgroundImageFix"/>
<feColorMatrix in="SourceAlpha" type="matrix" values="0 0 0 0 0 0 0 0 0 0 0 0 0 0 0 0 0 0 127 0"/>
<feOffset dy="20"/>
<feGaussianBlur stdDeviation="13"/>
<feColorMatrix type="matrix" values="0 0 0 0 0 0 0 0 0 0 0 0 0 0 0 0 0 0 0.12 0"/>
<feBlend mode="normal" in2="BackgroundImageFix" result="effect1_dropShadow"/>
<feColorMatrix in="SourceAlpha" type="matrix" values="0 0 0 0 0 0 0 0 0 0 0 0 0 0 0 0 0 0 127 0"/>
<feOffset dy="5"/>
<feGaussianBlur stdDeviation="10"/>
<feColorMatrix type="matrix" values="0 0 0 0 0 0 0 0 0 0 0 0 0 0 0 0 0 0 0.2 0"/>
<feBlend mode="normal" in2="effect1_dropShadow" result="effect2_dropShadow"/>
<feBlend mode="normal" in="SourceGraphic" in2="effect2_dropShadow" result="shape"/>
</filter>
</defs>
</svg>
