<svg width="80" height="188" viewBox="0 0 80 188" fill="none" xmlns="http://www.w3.org/2000/svg">
<g filter="url(#filter0_d)">
<circle cx="40" cy="136" r="22" fill="black"/>
<path d="M51.9043 131.341H46.8572C45.8219 131.341 44.916 132.247 44.916 133.282V138.329C44.916 139.364 45.8219 140.27 46.8572 140.27H51.9043C52.9395 140.27 53.8454 139.364 53.8454 138.329V133.282C53.8454 132.247 52.9395 131.341 51.9043 131.341ZM51.6454 136.129L50.2219 137.553C50.0925 137.682 50.0925 137.682 49.9631 137.682C49.8337 137.682 49.7043 137.682 49.7043 137.553C49.5748 137.423 49.5748 137.164 49.7043 137.035L50.4807 136.259H47.3748C47.116 136.259 46.9866 136.129 46.9866 135.87C46.9866 135.612 47.116 135.482 47.3748 135.482H50.3513L49.7043 134.706C49.5748 134.576 49.5748 134.317 49.7043 134.188C49.8337 134.059 50.0925 134.059 50.2219 134.188L51.6454 135.612C51.7748 135.741 51.7748 135.87 51.6454 136.129Z" fill="white"/>
<path d="M32.623 131.341H27.7053C26.67 131.341 25.7642 132.247 25.7642 133.282V138.329C25.7642 139.364 26.67 140.27 27.7053 140.27H32.7524C33.7877 140.27 34.6936 139.364 34.6936 138.329V133.282C34.5642 132.247 33.7877 131.341 32.623 131.341ZM32.2347 136.129H29.1289L29.9053 136.906C30.0347 137.035 30.0347 137.294 29.9053 137.423C29.7759 137.553 29.7759 137.553 29.6465 137.553C29.5171 137.553 29.3877 137.553 29.3877 137.423L27.9642 136C27.8347 135.87 27.8347 135.612 27.9642 135.482L29.3877 134.059C29.5171 133.929 29.7759 133.929 29.9053 134.059C30.0347 134.188 30.0347 134.447 29.9053 134.576L29.1289 135.353H32.2347C32.4936 135.353 32.623 135.482 32.623 135.741C32.623 136 32.3642 136.129 32.2347 136.129Z" fill="white"/>
<path d="M42.3295 141.047H37.2825C36.2472 141.047 35.3413 141.953 35.3413 142.988V148.035C35.3413 149.07 36.2472 149.976 37.2825 149.976H42.3295C43.3648 149.976 44.2707 149.07 44.2707 148.035V142.988C44.2707 141.823 43.3648 141.047 42.3295 141.047ZM41.5531 146.223L40.1295 147.647C40.0001 147.776 39.7413 147.776 39.6119 147.647L38.1884 146.223C38.059 146.094 38.059 146.094 38.059 145.965C38.059 145.835 38.059 145.706 38.1884 145.706C38.3178 145.576 38.5766 145.576 38.706 145.706L39.4825 146.482V143.376C39.4825 143.117 39.6119 142.988 39.8707 142.988C40.1295 142.988 40.259 143.117 40.259 143.376V146.353L41.0354 145.576C41.1648 145.447 41.4237 145.447 41.5531 145.576C41.6825 145.835 41.6825 146.094 41.5531 146.223Z" fill="white"/>
<path d="M42.3295 121.764H37.2825C36.2472 121.764 35.3413 122.67 35.3413 123.706V128.753C35.3413 129.788 36.2472 130.694 37.2825 130.694H42.3295C43.3648 130.694 44.2707 129.788 44.2707 128.753V123.706C44.2707 122.67 43.3648 121.764 42.3295 121.764ZM41.5531 125.906C41.4237 126.035 41.1648 126.035 41.0354 125.906L40.259 125.129V128.106C40.259 128.364 40.1295 128.494 39.8707 128.494C39.6119 128.494 39.4825 128.364 39.4825 128.106V125.129L38.706 125.906C38.5766 126.035 38.3178 126.035 38.1884 125.906C38.059 125.776 38.059 125.517 38.1884 125.388L39.6119 123.964C39.7413 123.835 40.0001 123.835 40.1295 123.964L41.5531 125.388C41.6825 125.517 41.6825 125.517 41.6825 125.647C41.6825 125.776 41.5531 125.906 41.5531 125.906Z" fill="white"/>
</g>
<g filter="url(#filter1_d)">
<path d="M31.4585 79.5406C31.4585 80.0686 31.5517 80.5966 31.738 81.0935L44.0373 68.7942C44.0684 68.7942 41.8011 68.6389 39.8444 68.6389C37.8877 68.6389 31.4585 69.1048 31.4585 69.1048V79.5406Z" fill="white"/>
<path d="M39.8444 88.7029L46.3047 83.3919C47.516 82.398 48.2303 81.0003 48.2303 79.5406V73.5773L36.1484 85.6592L39.8444 88.7029Z" fill="white"/>
<path d="M44.7516 65.4399C42.7328 65.1603 41.0245 64.5081 39.9375 63.7006C38.8504 64.5081 37.1422 65.1603 35.1233 65.4399C33.0735 65.7194 31.1789 65.5641 29.9365 65.0671V79.8511C29.9365 81.5594 30.7441 83.2055 32.2038 84.3857L39.8443 90.6596L47.4848 84.3857C48.9445 83.2055 49.7521 81.5594 49.7521 79.8511V65.0982C48.5097 65.5641 46.7083 65.7194 44.7516 65.4399ZM49.0377 79.6027C49.0377 81.1867 48.2923 82.7086 46.9257 83.8267L39.8443 89.6347L32.7629 83.8267C31.4273 82.7086 30.6509 81.2177 30.6509 79.6027V68.142C30.6509 68.142 35.6513 67.5208 39.8443 67.5208C44.0372 67.5208 49.0377 68.142 49.0377 68.142V79.6027Z" fill="white"/>
</g>
<g filter="url(#filter2_d)">
<path d="M46.3414 16.6386C46.3414 20.1101 43.3865 22.9243 39.7414 22.9243C36.0963 22.9243 33.1414 20.1101 33.1414 16.6386C33.1414 13.1671 36.0963 10.3528 39.7414 10.3528C43.3865 10.3528 46.3414 13.1671 46.3414 16.6386Z" fill="white"/>
<path d="M30.9414 32.3528H48.5414C48.5414 29.5592 46.7814 23.9719 39.7414 23.9719C33.1414 23.9719 30.9414 29.5592 30.9414 32.3528Z" fill="white"/>
</g>
<defs>
<filter id="filter0_d" x="0" y="108" width="80" height="80" filterUnits="userSpaceOnUse" color-interpolation-filters="sRGB">
<feFlood flood-opacity="0" result="BackgroundImageFix"/>
<feColorMatrix in="SourceAlpha" type="matrix" values="0 0 0 0 0 0 0 0 0 0 0 0 0 0 0 0 0 0 127 0"/>
<feOffset dy="12"/>
<feGaussianBlur stdDeviation="9"/>
<feColorMatrix type="matrix" values="0 0 0 0 0 0 0 0 0 0 0 0 0 0 0 0 0 0 0.5 0"/>
<feBlend mode="normal" in2="BackgroundImageFix" result="effect1_dropShadow"/>
<feBlend mode="normal" in="SourceGraphic" in2="effect1_dropShadow" result="shape"/>
</filter>
<filter id="filter1_d" x="10" y="49" width="60" height="60" filterUnits="userSpaceOnUse" color-interpolation-filters="sRGB">
<feFlood flood-opacity="0" result="BackgroundImageFix"/>
<feColorMatrix in="SourceAlpha" type="matrix" values="0 0 0 0 0 0 0 0 0 0 0 0 0 0 0 0 0 0 127 0"/>
<feOffset dy="3"/>
<feGaussianBlur stdDeviation="4"/>
<feColorMatrix type="matrix" values="0 0 0 0 0 0 0 0 0 0 0 0 0 0 0 0 0 0 0.5 0"/>
<feBlend mode="normal" in2="BackgroundImageFix" result="effect1_dropShadow"/>
<feBlend mode="normal" in="SourceGraphic" in2="effect1_dropShadow" result="shape"/>
</filter>
<filter id="filter2_d" x="10" y="-5" width="60" height="60" filterUnits="userSpaceOnUse" color-interpolation-filters="sRGB">
<feFlood flood-opacity="0" result="BackgroundImageFix"/>
<feColorMatrix in="SourceAlpha" type="matrix" values="0 0 0 0 0 0 0 0 0 0 0 0 0 0 0 0 0 0 127 0"/>
<feOffset dy="3"/>
<feGaussianBlur stdDeviation="4"/>
<feColorMatrix type="matrix" values="0 0 0 0 0 0 0 0 0 0 0 0 0 0 0 0 0 0 0.5 0"/>
<feBlend mode="normal" in2="BackgroundImageFix" result="effect1_dropShadow"/>
<feBlend mode="normal" in="SourceGraphic" in2="effect1_dropShadow" result="shape"/>
</filter>
</defs>
</svg>
