<svg width="60" height="60" viewBox="0 0 60 60" fill="none" xmlns="http://www.w3.org/2000/svg">
<g filter="url(#filter0_d)">
<circle cx="30" cy="27" r="22" fill="black"/>
<path d="M41.9043 22.3409H36.8572C35.8219 22.3409 34.916 23.2468 34.916 24.2821V29.3292C34.916 30.3645 35.8219 31.2704 36.8572 31.2704H41.9043C42.9395 31.2704 43.8454 30.3645 43.8454 29.3292V24.2821C43.8454 23.2468 42.9395 22.3409 41.9043 22.3409ZM41.6454 27.1292L40.2219 28.5527C40.0925 28.6821 40.0925 28.6821 39.9631 28.6821C39.8337 28.6821 39.7043 28.6821 39.7043 28.5527C39.5748 28.4233 39.5748 28.1645 39.7043 28.0351L40.4807 27.2586H37.3748C37.116 27.2586 36.9866 27.1292 36.9866 26.8704C36.9866 26.6115 37.116 26.4821 37.3748 26.4821H40.3513L39.7043 25.7056C39.5748 25.5762 39.5748 25.3174 39.7043 25.188C39.8337 25.0586 40.0925 25.0586 40.2219 25.188L41.6454 26.6115C41.7748 26.7409 41.7748 26.8704 41.6454 27.1292Z" fill="white"/>
<path d="M22.623 22.3409H17.7053C16.67 22.3409 15.7642 23.2468 15.7642 24.2821V29.3292C15.7642 30.3645 16.67 31.2704 17.7053 31.2704H22.7524C23.7877 31.2704 24.6936 30.3645 24.6936 29.3292V24.2821C24.5642 23.2468 23.7877 22.3409 22.623 22.3409ZM22.2347 27.1292H19.1289L19.9053 27.9056C20.0347 28.0351 20.0347 28.2939 19.9053 28.4233C19.7759 28.5527 19.7759 28.5527 19.6465 28.5527C19.5171 28.5527 19.3877 28.5527 19.3877 28.4233L17.9642 26.9998C17.8347 26.8704 17.8347 26.6115 17.9642 26.4821L19.3877 25.0586C19.5171 24.9292 19.7759 24.9292 19.9053 25.0586C20.0347 25.188 20.0347 25.4468 19.9053 25.5762L19.1289 26.3527H22.2347C22.4936 26.3527 22.623 26.4821 22.623 26.7409C22.623 26.9998 22.3642 27.1292 22.2347 27.1292Z" fill="white"/>
<path d="M32.3295 32.0469H27.2825C26.2472 32.0469 25.3413 32.9528 25.3413 33.9881V39.0351C25.3413 40.0704 26.2472 40.9763 27.2825 40.9763H32.3295C33.3648 40.9763 34.2707 40.0704 34.2707 39.0351V33.9881C34.2707 32.8233 33.3648 32.0469 32.3295 32.0469ZM31.5531 37.2233L30.1295 38.6469C30.0001 38.7763 29.7413 38.7763 29.6119 38.6469L28.1884 37.2233C28.059 37.0939 28.059 37.0939 28.059 36.9645C28.059 36.8351 28.059 36.7057 28.1884 36.7057C28.3178 36.5763 28.5766 36.5763 28.706 36.7057L29.4825 37.4822V34.3763C29.4825 34.1175 29.6119 33.9881 29.8707 33.9881C30.1295 33.9881 30.259 34.1175 30.259 34.3763V37.3528L31.0354 36.5763C31.1648 36.4469 31.4237 36.4469 31.5531 36.5763C31.6825 36.8351 31.6825 37.0939 31.5531 37.2233Z" fill="white"/>
<path d="M32.3295 12.7644H27.2825C26.2472 12.7644 25.3413 13.6703 25.3413 14.7056V19.7526C25.3413 20.7879 26.2472 21.6938 27.2825 21.6938H32.3295C33.3648 21.6938 34.2707 20.7879 34.2707 19.7526V14.7056C34.2707 13.6703 33.3648 12.7644 32.3295 12.7644ZM31.5531 16.9056C31.4237 17.035 31.1648 17.035 31.0354 16.9056L30.259 16.1291V19.1056C30.259 19.3644 30.1295 19.4938 29.8707 19.4938C29.6119 19.4938 29.4825 19.3644 29.4825 19.1056V16.1291L28.706 16.9056C28.5766 17.035 28.3178 17.035 28.1884 16.9056C28.059 16.7762 28.059 16.5173 28.1884 16.3879L29.6119 14.9644C29.7413 14.835 30.0001 14.835 30.1295 14.9644L31.5531 16.3879C31.6825 16.5173 31.6825 16.5173 31.6825 16.6468C31.6825 16.7762 31.5531 16.9056 31.5531 16.9056Z" fill="white"/>
</g>
<defs>
<filter id="filter0_d" x="0" y="0" width="60" height="60" filterUnits="userSpaceOnUse" color-interpolation-filters="sRGB">
<feFlood flood-opacity="0" result="BackgroundImageFix"/>
<feColorMatrix in="SourceAlpha" type="matrix" values="0 0 0 0 0 0 0 0 0 0 0 0 0 0 0 0 0 0 127 0"/>
<feOffset dy="3"/>
<feGaussianBlur stdDeviation="4"/>
<feColorMatrix type="matrix" values="0 0 0 0 0 0 0 0 0 0 0 0 0 0 0 0 0 0 0.5 0"/>
<feBlend mode="normal" in2="BackgroundImageFix" result="effect1_dropShadow"/>
<feBlend mode="normal" in="SourceGraphic" in2="effect1_dropShadow" result="shape"/>
</filter>
</defs>
</svg>
