<svg width="48" height="49" viewBox="0 0 48 49" fill="none" xmlns="http://www.w3.org/2000/svg">
<g filter="url(#filter0_d)">
<path d="M15.4585 25.5406C15.4585 26.0686 15.5517 26.5966 15.738 27.0935L28.0373 14.7942C28.0684 14.7942 25.8011 14.6389 23.8444 14.6389C21.8877 14.6389 15.4585 15.1048 15.4585 15.1048V25.5406Z" fill="white"/>
<path d="M23.8444 34.7029L30.3047 29.3919C31.516 28.398 32.2303 27.0003 32.2303 25.5406V19.5773L20.1484 31.6592L23.8444 34.7029Z" fill="white"/>
<path d="M28.7516 11.4399C26.7328 11.1603 25.0245 10.5081 23.9375 9.70056C22.8504 10.5081 21.1422 11.1603 19.1233 11.4399C17.0735 11.7194 15.1789 11.5641 13.9365 11.0671V25.8511C13.9365 27.5594 14.7441 29.2055 16.2038 30.3857L23.8443 36.6596L31.4848 30.3857C32.9445 29.2055 33.7521 27.5594 33.7521 25.8511V11.0982C32.5097 11.5641 30.7083 11.7194 28.7516 11.4399ZM33.0377 25.6027C33.0377 27.1867 32.2923 28.7086 30.9257 29.8267L23.8443 35.6347L16.7629 29.8267C15.4273 28.7086 14.6509 27.2177 14.6509 25.6027V14.142C14.6509 14.142 19.6513 13.5208 23.8443 13.5208C28.0372 13.5208 33.0377 14.142 33.0377 14.142V25.6027Z" fill="white"/>
</g>
<defs>
<filter id="filter0_d" x="-6" y="-5" width="60" height="60" filterUnits="userSpaceOnUse" color-interpolation-filters="sRGB">
<feFlood flood-opacity="0" result="BackgroundImageFix"/>
<feColorMatrix in="SourceAlpha" type="matrix" values="0 0 0 0 0 0 0 0 0 0 0 0 0 0 0 0 0 0 127 0"/>
<feOffset dy="3"/>
<feGaussianBlur stdDeviation="4"/>
<feColorMatrix type="matrix" values="0 0 0 0 0 0 0 0 0 0 0 0 0 0 0 0 0 0 0.5 0"/>
<feBlend mode="normal" in2="BackgroundImageFix" result="effect1_dropShadow"/>
<feBlend mode="normal" in="SourceGraphic" in2="effect1_dropShadow" result="shape"/>
</filter>
</defs>
</svg>
