<svg xmlns="http://www.w3.org/2000/svg" viewBox="0 0 4017.07 2001.89">
  <g id="areas">
    <g id="g-MAO">
      <path id="sea-mao" d="M1625.85,1309.11l.32.06s-6.86-7.26-5.54-11.09.9-17.55,0-20.49v0c-3.71-2.8-5.9-7.27-7.88-11.55-1.71-3.67-3.44-7.45-3.74-11.48s.79-7.87.19-11.74a22,22,0,0,0-2.17-6.22c-5.26-10.64-13.93-19.15-22.71-27.13a17.9,17.9,0,0,0-5.18-3.69,16.38,16.38,0,0,0-6.26-.91c-1,0-2,0-3,0a13,13,0,0,1-6.82-1.47c-4.1-2.5-5-7.93-5.57-12.7a9.78,9.78,0,0,0,8.87-6.77c.57-1.88.61-4,1.89-5.52l.15-.15c-14.54-7.14-37.45-17.83-48.41-23.25-16.67-8.25-59.71-44.46-75.85-55.76s-57-30.13-115.12-30.67q-5.55,0-10.71,0c-50.75-.07-74.33,3.35-103.9,15.66-70.12,29.17-632.73,130.39-923.33,130.71C185.61,1215,87.47,1197.54.5,1183.07v818.48H1067.83c1,0,1.91,0,2.87,0h.26a11.46,11.46,0,0,0,1-2.19c1.19-3.62.26-7.55-.54-11.29-8.4-39.07,7.47-90.39,29.73-123.59,0,0,19.53-8.19,35.35-15.55,10.79-5,15.83-17.83,25.75-24.4,3.12-2.06,6.64-3.48,9.69-5.65,5.57-4,9.11-10.09,13-15.73,7.34-10.71,16.59-18.31,24.57-28.56a161.4,161.4,0,0,0,24.41-44.35c1.59-4.44,3-9,4.88-13.29,4.09-9.36,10.64-17.86,19.47-23a49.08,49.08,0,0,0,6.75-4.09,29.45,29.45,0,0,0,4.39-4.8c4.3-5.5,8.56-11.18,14.12-15.42,5.75-4.38,12.65-7,19.61-9a128.64,128.64,0,0,1,28.44-4.71c7.2-.37,14.64-.18,21.31-2.9,7.25-3,12.71-9,17.91-14.85,9-10.16,18.06-20,27-30.19,3.45-3.94,7.13-8,12.09-9.72a3,3,0,0,0,1.87-2.31,16.27,16.27,0,0,0,.08-3.2,11.26,11.26,0,0,1,1-4.64s.08-.09,0-.11a13.07,13.07,0,0,1-3.5-1.71,22.31,22.31,0,0,1-6.36-5.11c-2.26-3-2.89-6.88-3-10.62s.2-7.52-.48-11.2c-1.11-6.05-3.92-12.14-8.81-15.87l-4.84-3.71a17,17,0,0,0-6.05-3.42,10.3,10.3,0,0,0-2.7-.25c-3.61.06-7.27,1.76-11,1.79-.27,0-.54,0-.8,0-2.28-.2-4.42-1.16-6.69-1.44a22.2,22.2,0,0,1-3.65-.45,13.68,13.68,0,0,1-4.44-3,30.92,30.92,0,0,0-6.79-4.27,20.53,20.53,0,0,1-3.92-2,4.79,4.79,0,0,1-2.07-3.73,5.61,5.61,0,0,1,.65-2.24c2.86-6.13,9.09-11,9.38-17.74.09-2.28-.53-4.57-.3-6.84.29-2.92,2-5.5,3-8.23a12.62,12.62,0,0,0,.11-9.07c-1.28-2.87-5.53-2.71-7.87-4.8a7.32,7.32,0,0,1-1.93-3.26c-1.79-5.59.11-11.62,2-17.17.87-2.58,1.8-5.25,3.68-7.22,3.1-3.26,8-3.87,12-5.94,5.46-2.82,9-8.23,12.11-13.54a229,229,0,0,0,21.5-49.41,56.5,56.5,0,0,0,2.4-10.72c.34-3.35.59-7.79,3.4-9.67a94.86,94.86,0,0,0,1.75-23.3,27.76,27.76,0,0,1,.28-7.94,12.29,12.29,0,0,1,10.72-9.06,8.72,8.72,0,0,1,.88,0,64.29,64.29,0,0,1,6.88.85,20.33,20.33,0,0,0,2.21.15,9.34,9.34,0,0,0,5.8-1.55c1.36-1,2.27-2.51,3.53-3.65,2.65-2.39,6.45-2.91,10-3.31.64-.07,1.28-.14,1.92-.16a7.12,7.12,0,0,1,1.84.21,10.63,10.63,0,0,1,3.21,1.73,48.43,48.43,0,0,1,8.88,7.3,26.09,26.09,0,0,0,3.73,4,17.41,17.41,0,0,0,4.65,2.2l19.14,6.75a102.1,102.1,0,0,1,9.57,3.76,115,115,0,0,1,10.72,5.63l6,3.69a55.83,55.83,0,0,0,7.25,3.94c6,2.54,12.9,2.87,18.77,5.81,4.66,2.33,8.63,6.27,13.75,7.24,2.42.45,4.91.2,7.35.42a18.81,18.81,0,0,1,11.69,5.63,19.16,19.16,0,0,0,2,2,10.77,10.77,0,0,0,3.08,1.51,35,35,0,0,0,9.16,2.13l0,0,.22,0c10.89-7.47,16.14-14.12,21.79-27s8.07-12.31,8.07-12.31l-1.42-4c-3.86-11,7.42-21.15,8.23-21.86l6.24,1.28Z" transform="translate(-0.25 0.09)" style="fill: #bacfd1;stroke: #231f20;stroke-width: 0.5px"/>
      <text transform="translate(1440.03 1206.23)" style="font-size: 15px;fill: #628c96;font-family: Bookmania-Semibold, Bookmania Semibold;font-weight: 600;letter-spacing: 0.04000651041666667em">M<tspan x="12.66" y="0" style="letter-spacing: 0.034993489583333336em">A</tspan><tspan x="22.36" y="0" style="letter-spacing: 0.05em">O</tspan></text>
    </g>
    <g id="g-POR">
      <path id="land-por" d="M1455.12,1379.19c-5.46-3.81-12.12-5.55-18.74-6.29-4.48-.51-9.1-.61-13.3-2.26-3.57-1.41-6.63-3.86-9.62-6.27a12,12,0,0,0-3-1.95,10.09,10.09,0,0,0-3.87-.48,35,35,0,0,0-11.78,2.37c-.11.88-.19,1.74-.27,2.54a56.5,56.5,0,0,1-2.4,10.72,229,229,0,0,1-21.5,49.41c-3.09,5.31-6.65,10.72-12.11,13.54-4,2.07-8.89,2.68-12,5.94-1.88,2-2.81,4.64-3.68,7.22-1.89,5.55-3.79,11.58-2,17.17a7.32,7.32,0,0,0,1.93,3.26c2.34,2.09,6.59,1.93,7.87,4.8a12.62,12.62,0,0,1-.11,9.07c-1,2.73-2.71,5.31-3,8.23-.23,2.27.39,4.56.3,6.84-.29,6.77-6.52,11.61-9.38,17.74a5.61,5.61,0,0,0-.65,2.24,4.79,4.79,0,0,0,2.07,3.73,20.53,20.53,0,0,0,3.92,2,30.92,30.92,0,0,1,6.79,4.27,13.68,13.68,0,0,0,4.44,3,22.2,22.2,0,0,0,3.65.45c2.27.28,4.41,1.24,6.69,1.44,4.2.36,8.38-1.87,12.5-1.75,2.86-8.35,6.65-16.38,13.49-21.72,3.32-2.59,7.35-4.55,9.53-8.16,3.92-6.49.12-15,2.08-22.37,1-3.55,3.2-6.59,4.62-10a22.68,22.68,0,0,0,1.53-11.88c-.47-3.33-1.64-7,.06-9.86a12.36,12.36,0,0,1,3-3.08c9.34-7.78,16.13-18.14,22.51-28.49q4.53-7.32,8.88-14.76c-.08-1.82,1.28-3.25,2.73-4.36a48,48,0,0,1,4.71-2.76,34.69,34.69,0,0,0,6.79-5.91,10.81,10.81,0,0,0,2.15-2.76,7,7,0,0,0-.38-6.24A13.93,13.93,0,0,0,1455.12,1379.19Z" transform="translate(-0.25 0.09)" style="fill: #f3ede6;stroke: #231f20;stroke-width: 0.5px"/>
      <g id="ctr-por">
        <circle cx="1359.39" cy="1456.37" r="11" style="fill: none;stroke: #231f20"/>
        <circle cx="1359.39" cy="1456.37" r="7.15" style="fill: #231f20"/>
      </g>
      <text transform="translate(1392.63 1417.98)" style="font-size: 15px;font-family: Bookmania-Semibold, Bookmania Semibold;font-weight: 600;letter-spacing: 0.05em">POR</text>
    </g>
    <g id="g-SPA">
      <path id="land-spa" d="M1700,1438.61c-.2-.41-.4-.8-.56-1.1a47.78,47.78,0,0,1-18-5.78c-7.9-4.28-16-8.37-22.85-14.21,0,0-7.2-4.35-10.68-5.46s-6-3.29-11.79-2.5-15.25-4.77-17.89-6.28c-12-6.87-27.06-18-32.68-26a30.62,30.62,0,0,1-2.51-4.16h0a35,35,0,0,1-9.17-2.13,10.84,10.84,0,0,1-3.07-1.51,19.16,19.16,0,0,1-2-2,18.81,18.81,0,0,0-11.69-5.63c-2.44-.22-4.93,0-7.35-.42-5.12-1-9.09-4.91-13.75-7.24-5.87-2.94-12.72-3.27-18.77-5.81a55.83,55.83,0,0,1-7.25-3.94l-6-3.69a115,115,0,0,0-10.72-5.63,101.22,101.22,0,0,0-9.58-3.76l-19.13-6.75a17.47,17.47,0,0,1-4.66-2.2,26.6,26.6,0,0,1-3.73-4,48,48,0,0,0-8.87-7.3,10.57,10.57,0,0,0-3.22-1.73,10.8,10.8,0,0,0-4-.05c-3.54.4-7.34.92-10,3.31-1.26,1.14-2.17,2.64-3.53,3.65-2.16,1.61-5.08,1.73-7.75,1.4s-5.33-1-8-.82a12.29,12.29,0,0,0-10.72,9.06,27.76,27.76,0,0,0-.28,7.94,94.86,94.86,0,0,1-1.75,23.3c-2.14,1.43-2.79,4.34-3.13,7.13a35,35,0,0,1,11.78-2.37,10.09,10.09,0,0,1,3.87.48,12,12,0,0,1,3,1.95c3,2.41,6,4.86,9.62,6.27,4.2,1.65,8.82,1.75,13.3,2.26,6.62.74,13.28,2.48,18.74,6.29a13.93,13.93,0,0,1,4.46,4.64,7,7,0,0,1,.38,6.24,10.81,10.81,0,0,1-2.15,2.76,34.69,34.69,0,0,1-6.79,5.91,48,48,0,0,0-4.71,2.76c-1.45,1.11-2.81,2.54-2.73,4.36q-4.35,7.44-8.88,14.76c-6.38,10.35-13.17,20.71-22.51,28.49a12.36,12.36,0,0,0-3,3.08c-1.7,2.9-.53,6.53-.06,9.86a22.68,22.68,0,0,1-1.53,11.88c-1.42,3.39-3.67,6.43-4.62,10-2,7.33,1.84,15.88-2.08,22.37-2.18,3.61-6.21,5.57-9.53,8.16-6.84,5.34-10.63,13.37-13.49,21.72a10,10,0,0,1,1.95.24,17,17,0,0,1,6.05,3.42l4.84,3.71c4.89,3.73,7.7,9.82,8.81,15.87.68,3.68.36,7.46.48,11.2s.74,7.64,3,10.62a22.31,22.31,0,0,0,6.36,5.11,13.07,13.07,0,0,0,3.5,1.71s0,0,0,0h0l.21,0c4.59,1,8.73-3.38,13.42-3.54,2.9-.09,5.59,1.43,8.45,1.89,7.22,1.16,13.88-4.48,21.18-4.86a28.69,28.69,0,0,1,8.84,1.34,69.52,69.52,0,0,1,9.5,3l2.85,1.22c5.85,2.51,12.11,5.07,18.38,4a28.17,28.17,0,0,1,3.62-.6c3.5-.16,6.73,2,10.22,2.22,4.44.3,8.48-2.48,11.73-5.52s6.27-6.53,10.36-8.28,8.56-1.5,12.93-1.52,9-.39,12.55-3c5.92-4.39,9.48-11.29,13.87-17.22,2.46-3.32,5.06-6.76,8.76-8.61s8.51-1.9,12.08-4.28c.09-2.69-1.44-5.17-2.69-7.56a39.42,39.42,0,0,1-2-4.74,21.31,21.31,0,0,1-1.16-3.9c-.87-5.2,2.29-10.58,6.89-13.16,2.55-4.75,5.07-9.26,7.75-13.94a27.08,27.08,0,0,1,2.75-4.17,27.93,27.93,0,0,1,3.94-3.58l6.19-4.93a9,9,0,0,0,2.78-3,11.74,11.74,0,0,1,.59-1.3c1.61-2.49,6.2-.58,8.08-2.87.88-1.07.76-2.61,1.06-4a8.29,8.29,0,0,1,4.86-5.42,24.56,24.56,0,0,1,7.32-1.69l20.25-2.51a46.21,46.21,0,0,0,19.5-7c3.7-2.4,8-4,11.67-6.59a46.2,46.2,0,0,0,6.07-5.55,26,26,0,0,0,4.12-5A5.21,5.21,0,0,0,1700,1438.61Z" transform="translate(-0.25 0.09)" style="fill: #f3ede6;stroke: #231f20;stroke-width: 0.5px"/>
      <g id="ctr-spa">
        <circle cx="1509.58" cy="1447.37" r="11" style="fill: none;stroke: #231f20"/>
        <circle cx="1509.58" cy="1447.37" r="7.15" style="fill: #231f20"/>
      </g>
      <text transform="translate(1497.18 1480.72)" style="font-size: 15px;font-family: Bookmania-Semibold, Bookmania Semibold;font-weight: 600;letter-spacing: 0.05em">S<tspan x="8.15" y="0" style="letter-spacing: -0.034016927083333336em">P</tspan><tspan x="15.61" y="0">A</tspan></text>
    </g>
    <g id="g-WES">
      <path id="sea-wes" d="M1824.83,1589.24a5.78,5.78,0,0,1-2.17-1.16c-4.22-3.46-4.73-9.77-3.73-15.14s3.15-10.58,3-16c-.09-3.56-1.17-7.06-1.09-10.63,0-.47.05-.93.1-1.4-31.26-13.68-65.58-21.7-99.54-18.49-12.08,1.14-24.08,3.69-36.21,3.38-.38.14-.77.25-1.15.37a8.83,8.83,0,0,1-.33,3.85c-1.48,5-6.71,8.85-11.79,7.83-3.31-.67-5.92-3.1-8.69-5-1.3-.49-2.42-1.55-3.78-2s-3.24,0-4.23-.5c-.43-.2-.61-.41-.62-.64-4.41,1.49-8.6,3.7-13,5.39-15.87,6.18-31.44,6.31-48.45,5.29l-1.34.08c-3.57,2.38-8.24,2.37-12.08,4.28s-6.3,5.29-8.76,8.61c-4.39,5.93-8,12.83-13.87,17.22-3.52,2.61-8.17,3-12.55,3s-8.91-.19-12.93,1.52-7.11,5.25-10.36,8.28-7.29,5.82-11.73,5.52c-3.49-.24-6.72-2.38-10.22-2.22a28.17,28.17,0,0,0-3.62.6c-6.27,1.07-12.53-1.49-18.38-4l-2.85-1.22a69.52,69.52,0,0,0-9.5-3,28.69,28.69,0,0,0-8.84-1.34c-7.3.38-14,6-21.18,4.86-2.86-.46-5.55-2-8.45-1.89-4.69.16-8.83,4.52-13.42,3.54l-.21,0,0,.09a11.26,11.26,0,0,0-1,4.64,16.27,16.27,0,0,1-.08,3.2,3.58,3.58,0,0,1-.63,1.42,5.17,5.17,0,0,1,3.35,1.07,6.57,6.57,0,0,1,1.74,2.44c5,10.8,6.73,24.16,16.37,31.14,4.66,3.37,10.51,4.65,16.23,5.23a81.89,81.89,0,0,0,26-1.48c1.37,7,9.08,10.57,15.94,12.5a135.54,135.54,0,0,0,14.4,3.22c7.21,1.2,15.15,1.68,21.28-2.29,4.2-2.73,7.2-7.35,11.95-8.93,7.12-2.37,14.32,3.06,21.74,4.19,10.32-5.32,20.73-8.39,32-11.35a85.34,85.34,0,0,1,22.36-3.28c10.07.08,19.93,2.77,30,3.7,10.92,1,21.92-.08,32.88.41s22.29,2.77,30.91,9.55c3.79,3,7.29,6.94,12.07,7.6,5,.69,9.55-2.42,14.1-4.53a38.72,38.72,0,0,1,35.76,2c2.15,1.31,3.65-.89,6.05-1.66,5.17-1.67,10.83-.24,15.84,1.87s9.78,4.9,15.07,6.12c.9.21,1.84.38,2.77.56a30.52,30.52,0,0,1,14.23-4.13,6.66,6.66,0,0,0,3.17-.65,5,5,0,0,0,1.91-2.85c1.33-4.14.59-8.64,1.18-12.95.34-2.47,1.12-4.86,1.7-7.29A48.55,48.55,0,0,0,1824.83,1589.24Z" transform="translate(-0.25 0.09)" style="fill: #bacfd1;stroke: #231f20;stroke-width: 0.5px"/>
      <text transform="translate(1676.6 1589.91)" style="font-size: 15px;fill: #628c96;font-family: Bookmania-Semibold, Bookmania Semibold;font-weight: 600;letter-spacing: 0.05em">WES</text>
    </g>
    <g id="g-LYO">
      <path id="sea-lyo" d="M1886.8,1435.42q-.43-6.18-.85-12.37a26,26,0,0,0-1-6.58,8.83,8.83,0,0,0-4-5.12.5.5,0,0,0,.07-.08,10.13,10.13,0,0,1-1.55-.68,36.3,36.3,0,0,1-6.32-4.64c-3.84-3.31-7.74-7.19-12.95-8.07-5.91-1-11.7,2.23-16.41,5.95s-9.06,8.14-14.68,10.23a22.56,22.56,0,0,1-9.5,1.27,5.76,5.76,0,0,1-.91-.15h0c-4.55,2.08-8.06,2.73-10.53,4.55-6.51,4.8-13.27,10.62-21.25,12a23.53,23.53,0,0,1-17.64-4.13,11.63,11.63,0,0,1-2.53-2.37c-.66-.88-1.12-1.88-1.75-2.79a17.94,17.94,0,0,0-2-2.34l-2.7-2.81c-1.48-1.55-3.38-3.23-5.48-2.77-4-.15-8.3-.38-11.94-1.94a67.7,67.7,0,0,1-6.92-4c-5.91-3.41-13.36-4.77-19.63-2.07-4.27,1.84-7.61,5.33-10.87,8.57a14.29,14.29,0,0,0-3.66,5.89,27.8,27.8,0,0,0-.94,12c.18,1.32.27,3-1,3.61-.22.1-.5.17-.59.41a.72.72,0,0,0,.14.57c.17.29.38.7.58,1.13a5.21,5.21,0,0,1-.11,4.81,26,26,0,0,1-4.12,5,46.2,46.2,0,0,1-6.07,5.55c-3.63,2.63-8,4.19-11.67,6.59a46.21,46.21,0,0,1-19.5,7l-20.25,2.51a24.56,24.56,0,0,0-7.32,1.69,8.29,8.29,0,0,0-4.86,5.42c-.3,1.35-.18,2.89-1.06,4-1.88,2.29-6.47.38-8.08,2.87a11.74,11.74,0,0,0-.59,1.3,9,9,0,0,1-2.78,3l-6.19,4.93a27.93,27.93,0,0,0-3.94,3.58,27.08,27.08,0,0,0-2.75,4.17c-2.68,4.68-5.2,9.19-7.75,13.94-4.6,2.58-7.76,8-6.89,13.16a21.31,21.31,0,0,0,1.16,3.9,39.42,39.42,0,0,0,2,4.74c1.25,2.39,2.78,4.87,2.69,7.56l1.34-.08c17,1,32.58.89,48.45-5.29,4.36-1.69,8.55-3.9,13-5.39,0-.57,1-1.22,1.66-1.9l3.58-3.49a22.68,22.68,0,0,1,4-3.3c4.11-2.46,9.36-2,13.92-.53,2.26.73,4.61,1.82,5.73,3.92a5.88,5.88,0,0,1,.59,1.82c.38-.12.77-.23,1.15-.37,12.13.31,24.13-2.24,36.21-3.38,33.94-3.21,68.25,4.8,99.49,18.47l0,0c.45-4.47,2.36-8.83,1.93-13.31-.57-6-5.28-11.6-3.75-17.43,4.68,1.48,10,2.91,14.3.55,1.42-.78,2.61-1.92,4-2.81a16.68,16.68,0,0,1,11.78-2.61c-.06-3.58-.2-7.16-.41-10.72-2.84-.43-5.41-5.3-7-7.23a24.19,24.19,0,0,1-3.5-5.14c-1.42-3.1-1.46-6.66-1.11-10.05a24.29,24.29,0,0,1,1.63-7c3.25-7.57,11.54-11.39,19.19-14.51.19-.55.39-1.1.63-1.66a14.87,14.87,0,0,1,3-4.84A12.22,12.22,0,0,1,1870,1445a47.08,47.08,0,0,1,9.06,1.07c3.24.54,6.51.93,9.78,1.17C1887.37,1443.51,1887.07,1439.41,1886.8,1435.42Z" transform="translate(-0.25 0.09)" style="fill: #bacfd1;stroke: #231f20;stroke-width: 0.5px"/>
      <text transform="translate(1734.27 1475.85)" style="font-size: 15px;fill: #628c96;font-family: Bookmania-Semibold, Bookmania Semibold;font-weight: 600;letter-spacing: -0.033984375em">L<tspan x="6.57" y="0" style="letter-spacing: 0.013997395833333334em">Y</tspan><tspan x="14.89" y="0" style="letter-spacing: 0.05em">O</tspan></text>
    </g>
    <path id="neutral-4" d="M1663.23,1536.78c2.77,1.93,5.38,4.36,8.69,5,5.08,1,10.31-2.87,11.79-7.83a7.6,7.6,0,0,0-.26-5.67c-1.12-2.1-3.47-3.19-5.73-3.92-4.56-1.46-9.81-1.93-13.92.53a22.68,22.68,0,0,0-4,3.3l-3.58,3.49c-1,.94-2.57,1.84-1,2.54,1,.45,3,.07,4.23.5S1661.93,1536.29,1663.23,1536.78Z" transform="translate(-0.25 0.09)" style="fill: #cec7af;stroke: #231f20;stroke-width: 0.5px"/>
  </g>
</svg>
